<svg xmlns="http://www.w3.org/2000/svg" xmlns:xlink="http://www.w3.org/1999/xlink" width="500" zoomAndPan="magnify" viewBox="0 0 375 374.999991" height="500" preserveAspectRatio="xMidYMid meet" version="1.0"><defs><g/><clipPath id="720857ad08"><path d="M 162 164 L 205 164 L 205 225.847656 L 162 225.847656 Z M 162 164 " clip-rule="nonzero"/></clipPath><clipPath id="7c91197ea6"><path d="M 137.632812 122.398438 L 229.882812 122.398438 L 229.882812 212 L 137.632812 212 Z M 137.632812 122.398438 " clip-rule="nonzero"/></clipPath></defs><rect x="-37.5" width="450" fill="#ffffff" y="-37.499999" height="449.999989" fill-opacity="1"/><rect x="-37.5" width="450" fill="#ffffff" y="-37.499999" height="449.999989" fill-opacity="1"/><g fill="#365b6d" fill-opacity="1"><g transform="translate(38.513634, 213.149396)"><g><path d="M 81.8125 0 L 3.953125 0 L 3.953125 -4.515625 C 6.441406 -4.597656 8.476562 -4.828125 10.0625 -5.203125 C 11.644531 -5.578125 12.847656 -6.210938 13.671875 -7.109375 C 14.503906 -8.015625 15.066406 -9.296875 15.359375 -10.953125 C 15.660156 -12.617188 15.8125 -14.769531 15.8125 -17.40625 L 15.8125 -69.609375 C 15.8125 -72.242188 15.679688 -74.367188 15.421875 -75.984375 C 15.160156 -77.609375 14.648438 -78.890625 13.890625 -79.828125 C 13.140625 -80.773438 12.066406 -81.414062 10.671875 -81.75 C 9.285156 -82.09375 7.460938 -82.335938 5.203125 -82.484375 L 5.203125 -87.015625 L 44.1875 -87.015625 L 44.1875 -82.484375 C 41.625 -82.410156 39.566406 -82.1875 38.015625 -81.8125 C 36.472656 -81.4375 35.285156 -80.757812 34.453125 -79.78125 C 33.628906 -78.800781 33.085938 -77.441406 32.828125 -75.703125 C 32.566406 -73.972656 32.4375 -71.675781 32.4375 -68.8125 L 32.4375 -21.46875 C 32.4375 -18.300781 32.753906 -15.71875 33.390625 -13.71875 C 34.035156 -11.726562 35.144531 -10.1875 36.71875 -9.09375 C 38.300781 -8 40.410156 -7.242188 43.046875 -6.828125 C 45.691406 -6.421875 48.972656 -6.21875 52.890625 -6.21875 C 57.253906 -6.21875 60.90625 -6.476562 63.84375 -7 C 66.78125 -7.53125 69.242188 -8.53125 71.234375 -10 C 73.234375 -11.46875 74.835938 -13.441406 76.046875 -15.921875 C 77.253906 -18.410156 78.269531 -21.65625 79.09375 -25.65625 L 83.625 -25.65625 Z M 81.8125 0 "/></g></g></g><g fill="#365b6d" fill-opacity="1"><g transform="translate(141.353716, 213.149396)"><g/></g></g><g fill="#365b6d" fill-opacity="1"><g transform="translate(188.928831, 213.149396)"><g/></g></g><g fill="#365b6d" fill-opacity="1"><g transform="translate(236.515178, 213.149396)"><g><path d="M 3.953125 0 L 3.953125 -4.515625 C 6.441406 -4.597656 8.457031 -4.804688 10 -5.140625 C 11.539062 -5.484375 12.742188 -6.125 13.609375 -7.0625 C 14.484375 -8 15.066406 -9.273438 15.359375 -10.890625 C 15.660156 -12.515625 15.8125 -14.6875 15.8125 -17.40625 L 15.8125 -69.609375 C 15.8125 -72.242188 15.695312 -74.367188 15.46875 -75.984375 C 15.25 -77.609375 14.757812 -78.890625 14 -79.828125 C 13.25 -80.773438 12.210938 -81.414062 10.890625 -81.75 C 9.578125 -82.09375 7.867188 -82.335938 5.765625 -82.484375 L 5.765625 -87.015625 L 48.703125 -87.015625 C 55.929688 -87.015625 62.597656 -85.882812 68.703125 -83.625 C 74.804688 -81.363281 80.078125 -78.234375 84.515625 -74.234375 C 88.960938 -70.242188 92.429688 -65.5 94.921875 -60 C 97.410156 -54.5 98.65625 -48.507812 98.65625 -42.03125 C 98.65625 -35.851562 97.484375 -30.179688 95.140625 -25.015625 C 92.804688 -19.859375 89.546875 -15.4375 85.359375 -11.75 C 81.179688 -8.0625 76.171875 -5.179688 70.328125 -3.109375 C 64.492188 -1.035156 58.078125 0 51.078125 0 Z M 34.359375 -80.109375 C 33.078125 -80.109375 32.4375 -79.472656 32.4375 -78.203125 L 32.4375 -19.78125 C 32.4375 -15.40625 33.789062 -12.160156 36.5 -10.046875 C 39.207031 -7.941406 43.390625 -6.890625 49.046875 -6.890625 C 58.910156 -6.890625 66.5 -9.863281 71.8125 -15.8125 C 77.125 -21.769531 79.78125 -30.4375 79.78125 -41.8125 C 79.78125 -47.832031 79.0625 -53.21875 77.625 -57.96875 C 76.195312 -62.71875 74.125 -66.726562 71.40625 -70 C 68.695312 -73.28125 65.398438 -75.785156 61.515625 -77.515625 C 57.640625 -79.242188 53.296875 -80.109375 48.484375 -80.109375 Z M 34.359375 -80.109375 "/></g></g></g><g clip-path="url(#720857ad08)"><path fill="#365b6d" d="M 167.898438 164.578125 C 166.535156 178.863281 165.253906 185.394531 162.585938 199.082031 C 169.078125 204 181.832031 225.707031 181.832031 225.707031 L 181.832031 195.546875 C 178.585938 194.71875 176.167969 192.09375 176.167969 188.269531 C 176.167969 184.484375 179.515625 180.828125 183.652344 180.828125 C 187.785156 180.828125 191.09375 184.507812 191.09375 188.269531 C 191.09375 192.074219 188.695312 194.71875 185.46875 195.546875 L 185.46875 225.707031 C 185.46875 225.707031 198.226562 204 204.714844 199.082031 C 202.050781 185.394531 200.769531 178.863281 199.402344 164.578125 L 183.652344 171.628906 Z M 167.898438 164.578125 " fill-opacity="1" fill-rule="nonzero"/></g><path fill="#365b6d" d="M 183.652344 142.273438 L 212.507812 155.214844 L 183.652344 168.15625 L 160.582031 157.820312 L 162.050781 170.863281 L 160.085938 173.449219 L 158.101562 170.863281 L 159.628906 157.386719 L 154.773438 155.214844 Z M 183.652344 142.273438 " fill-opacity="1" fill-rule="nonzero"/><g clip-path="url(#7c91197ea6)"><path fill="#365b6d" d="M 183.652344 122.347656 C 196.34375 122.347656 207.859375 127.515625 216.148438 135.824219 C 224.476562 144.15625 229.625 155.667969 229.625 168.363281 C 229.625 181.054688 224.5 192.570312 216.148438 200.859375 C 211.371094 205.675781 205.523438 209.417969 198.96875 211.730469 C 200.292969 209.871094 201.636719 208.03125 203.0625 206.273438 C 203.890625 205.242188 204.921875 204 205.976562 202.988281 C 208.4375 201.375 210.710938 199.535156 212.777344 197.488281 C 220.21875 190.003906 224.828125 179.710938 224.828125 168.339844 C 224.828125 156.972656 220.242188 146.636719 212.777344 139.195312 C 205.296875 131.753906 195 127.140625 183.628906 127.140625 C 172.261719 127.140625 161.925781 131.730469 154.484375 139.195312 C 147.042969 146.65625 142.410156 156.972656 142.410156 168.339844 C 142.410156 179.710938 147.042969 190.003906 154.484375 197.488281 C 156.550781 199.515625 158.824219 201.375 161.285156 202.988281 C 162.316406 203.980469 163.351562 205.242188 164.199219 206.273438 C 165.625 208.011719 166.96875 209.871094 168.273438 211.730469 C 161.738281 209.417969 155.910156 205.675781 151.09375 200.859375 C 142.804688 192.570312 137.636719 181.054688 137.636719 168.363281 C 137.636719 155.667969 142.804688 144.15625 151.113281 135.824219 C 159.445312 127.515625 170.957031 122.347656 183.652344 122.347656 Z M 183.652344 122.347656 " fill-opacity="1" fill-rule="nonzero"/></g><g fill="#365b6d" fill-opacity="1"><g transform="translate(40.824479, 260.323409)"><g><path d="M 22.859375 -9.359375 C 22.859375 -7.648438 22.671875 -6.1875 22.296875 -4.96875 C 21.929688 -3.75 21.351562 -2.742188 20.5625 -1.953125 C 19.78125 -1.171875 18.769531 -0.597656 17.53125 -0.234375 C 16.289062 0.117188 14.804688 0.296875 13.078125 0.296875 C 9.835938 0.296875 7.46875 -0.378906 5.96875 -1.734375 C 4.46875 -3.097656 3.71875 -5.269531 3.71875 -8.25 L 3.71875 -16.515625 C 3.71875 -17.304688 3.707031 -17.96875 3.6875 -18.5 C 3.664062 -19.03125 3.632812 -19.476562 3.59375 -19.84375 C 3.550781 -20.207031 3.492188 -20.503906 3.421875 -20.734375 C 3.359375 -20.960938 3.273438 -21.160156 3.171875 -21.328125 C 2.992188 -21.609375 2.734375 -21.796875 2.390625 -21.890625 C 2.046875 -21.992188 1.519531 -22.046875 0.8125 -22.046875 L 0.8125 -23.25 L 11.65625 -23.25 L 11.65625 -22.046875 C 10.8125 -22.046875 10.1875 -22 9.78125 -21.90625 C 9.382812 -21.820312 9.070312 -21.648438 8.84375 -21.390625 C 8.707031 -21.222656 8.59375 -21.023438 8.5 -20.796875 C 8.40625 -20.566406 8.332031 -20.265625 8.28125 -19.890625 C 8.238281 -19.515625 8.207031 -19.054688 8.1875 -18.515625 C 8.164062 -17.972656 8.15625 -17.304688 8.15625 -16.515625 L 8.15625 -8.609375 C 8.15625 -6.316406 8.640625 -4.617188 9.609375 -3.515625 C 10.585938 -2.421875 12.097656 -1.875 14.140625 -1.875 C 18.285156 -1.875 20.359375 -4.179688 20.359375 -8.796875 L 20.359375 -15.765625 C 20.359375 -16.609375 20.34375 -17.332031 20.3125 -17.9375 C 20.28125 -18.539062 20.226562 -19.050781 20.15625 -19.46875 C 20.09375 -19.894531 20.003906 -20.25 19.890625 -20.53125 C 19.773438 -20.820312 19.640625 -21.054688 19.484375 -21.234375 C 19.203125 -21.515625 18.835938 -21.71875 18.390625 -21.84375 C 17.953125 -21.976562 17.335938 -22.046875 16.546875 -22.046875 L 16.546875 -23.25 L 26.34375 -23.25 L 26.34375 -22.046875 C 25.59375 -22.046875 25.015625 -21.988281 24.609375 -21.875 C 24.210938 -21.769531 23.898438 -21.578125 23.671875 -21.296875 C 23.515625 -21.109375 23.382812 -20.867188 23.28125 -20.578125 C 23.1875 -20.285156 23.109375 -19.921875 23.046875 -19.484375 C 22.984375 -19.054688 22.9375 -18.539062 22.90625 -17.9375 C 22.875 -17.332031 22.859375 -16.609375 22.859375 -15.765625 Z M 22.859375 -9.359375 "/></g></g></g><g fill="#365b6d" fill-opacity="1"><g transform="translate(75.45591, 260.323409)"><g><path d="M 20.234375 0.296875 L 6.859375 -18.75 L 6.734375 -18.75 L 6.734375 -5.765625 C 6.734375 -4.765625 6.769531 -3.96875 6.84375 -3.375 C 6.914062 -2.789062 7.066406 -2.335938 7.296875 -2.015625 C 7.523438 -1.703125 7.84375 -1.492188 8.25 -1.390625 C 8.664062 -1.285156 9.207031 -1.222656 9.875 -1.203125 L 9.875 0 L 0.90625 0 L 0.90625 -1.203125 C 1.65625 -1.222656 2.253906 -1.289062 2.703125 -1.40625 C 3.148438 -1.519531 3.5 -1.726562 3.75 -2.03125 C 4.007812 -2.332031 4.175781 -2.757812 4.25 -3.3125 C 4.332031 -3.863281 4.375 -4.613281 4.375 -5.5625 L 4.375 -17.703125 C 4.375 -18.546875 4.332031 -19.242188 4.25 -19.796875 C 4.175781 -20.347656 4.023438 -20.785156 3.796875 -21.109375 C 3.578125 -21.429688 3.257812 -21.65625 2.84375 -21.78125 C 2.4375 -21.914062 1.890625 -22.003906 1.203125 -22.046875 L 1.203125 -23.25 L 9.640625 -23.25 L 21.8125 -5.796875 L 21.921875 -5.796875 L 21.921875 -17.484375 C 21.921875 -18.472656 21.882812 -19.265625 21.8125 -19.859375 C 21.75 -20.453125 21.597656 -20.910156 21.359375 -21.234375 C 21.128906 -21.554688 20.804688 -21.765625 20.390625 -21.859375 C 19.984375 -21.960938 19.445312 -22.023438 18.78125 -22.046875 L 18.78125 -23.25 L 27.75 -23.25 L 27.75 -22.046875 C 27.007812 -22.023438 26.410156 -21.957031 25.953125 -21.84375 C 25.503906 -21.738281 25.15625 -21.535156 24.90625 -21.234375 C 24.65625 -20.929688 24.488281 -20.5 24.40625 -19.9375 C 24.320312 -19.375 24.28125 -18.628906 24.28125 -17.703125 L 24.28125 0.296875 Z M 20.234375 0.296875 "/></g></g></g><g fill="#365b6d" fill-opacity="1"><g transform="translate(111.898819, 260.323409)"><g><path d="M 11.875 0 L 1.09375 0 L 1.09375 -1.203125 C 1.769531 -1.222656 2.316406 -1.289062 2.734375 -1.40625 C 3.148438 -1.519531 3.46875 -1.726562 3.6875 -2.03125 C 3.90625 -2.332031 4.054688 -2.757812 4.140625 -3.3125 C 4.222656 -3.863281 4.265625 -4.613281 4.265625 -5.5625 L 4.265625 -17.703125 C 4.265625 -18.546875 4.226562 -19.242188 4.15625 -19.796875 C 4.082031 -20.347656 3.941406 -20.785156 3.734375 -21.109375 C 3.535156 -21.429688 3.25 -21.65625 2.875 -21.78125 C 2.507812 -21.914062 2.015625 -22.003906 1.390625 -22.046875 L 1.390625 -23.25 L 11.5625 -23.25 L 11.5625 -22.046875 C 10.9375 -22.003906 10.4375 -21.914062 10.0625 -21.78125 C 9.695312 -21.65625 9.410156 -21.429688 9.203125 -21.109375 C 9.003906 -20.785156 8.867188 -20.347656 8.796875 -19.796875 C 8.734375 -19.242188 8.703125 -18.546875 8.703125 -17.703125 L 8.703125 -5.5625 C 8.703125 -4.613281 8.734375 -3.863281 8.796875 -3.3125 C 8.867188 -2.757812 9.019531 -2.332031 9.25 -2.03125 C 9.488281 -1.726562 9.8125 -1.519531 10.21875 -1.40625 C 10.632812 -1.289062 11.1875 -1.222656 11.875 -1.203125 Z M 11.875 0 "/></g></g></g><g fill="#365b6d" fill-opacity="1"><g transform="translate(132.914002, 260.323409)"><g><path d="M 13.234375 -5.1875 L 17.15625 -15.25 C 17.539062 -16.238281 17.847656 -17.046875 18.078125 -17.671875 C 18.304688 -18.296875 18.476562 -18.804688 18.59375 -19.203125 C 18.71875 -19.609375 18.800781 -19.929688 18.84375 -20.171875 C 18.882812 -20.410156 18.90625 -20.644531 18.90625 -20.875 C 18.90625 -21.351562 18.722656 -21.664062 18.359375 -21.8125 C 17.992188 -21.96875 17.269531 -22.046875 16.1875 -22.046875 L 16.1875 -23.25 L 24.765625 -23.25 L 24.765625 -22.046875 C 23.097656 -22.046875 21.941406 -21.234375 21.296875 -19.609375 L 13.34375 0.296875 L 11.109375 0.296875 L 3.890625 -17.34375 C 3.492188 -18.28125 3.132812 -19.050781 2.8125 -19.65625 C 2.488281 -20.257812 2.144531 -20.738281 1.78125 -21.09375 C 1.414062 -21.445312 1.015625 -21.6875 0.578125 -21.8125 C 0.148438 -21.945312 -0.351562 -22.015625 -0.9375 -22.015625 L -0.9375 -23.25 L 10.484375 -23.25 L 10.484375 -22.015625 C 9.953125 -21.992188 9.507812 -21.960938 9.15625 -21.921875 C 8.8125 -21.878906 8.535156 -21.8125 8.328125 -21.71875 C 8.128906 -21.632812 7.988281 -21.515625 7.90625 -21.359375 C 7.832031 -21.210938 7.796875 -21.03125 7.796875 -20.8125 C 7.796875 -20.53125 7.84375 -20.195312 7.9375 -19.8125 C 8.039062 -19.425781 8.191406 -18.960938 8.390625 -18.421875 Z M 13.234375 -5.1875 "/></g></g></g><g fill="#365b6d" fill-opacity="1"><g transform="translate(165.281086, 260.323409)"><g><path d="M 8.671875 -12.859375 C 9.953125 -12.859375 10.984375 -12.898438 11.765625 -12.984375 C 12.554688 -13.066406 13.164062 -13.234375 13.59375 -13.484375 C 14.03125 -13.734375 14.335938 -14.097656 14.515625 -14.578125 C 14.703125 -15.066406 14.847656 -15.722656 14.953125 -16.546875 L 16.0625 -16.546875 L 16.0625 -7.703125 L 14.953125 -7.703125 C 14.828125 -8.503906 14.664062 -9.144531 14.46875 -9.625 C 14.269531 -10.113281 13.945312 -10.484375 13.5 -10.734375 C 13.0625 -10.984375 12.460938 -11.144531 11.703125 -11.21875 C 10.953125 -11.289062 9.941406 -11.328125 8.671875 -11.328125 L 8.671875 -5.109375 C 8.671875 -4.460938 8.753906 -3.914062 8.921875 -3.46875 C 9.097656 -3.03125 9.382812 -2.675781 9.78125 -2.40625 C 10.1875 -2.132812 10.722656 -1.941406 11.390625 -1.828125 C 12.054688 -1.710938 12.867188 -1.65625 13.828125 -1.65625 C 14.972656 -1.65625 15.941406 -1.734375 16.734375 -1.890625 C 17.535156 -2.054688 18.195312 -2.34375 18.71875 -2.75 C 19.25 -3.15625 19.675781 -3.691406 20 -4.359375 C 20.320312 -5.035156 20.59375 -5.890625 20.8125 -6.921875 L 22.015625 -6.921875 L 21.53125 0 L 1.0625 0 L 1.0625 -1.203125 C 1.71875 -1.222656 2.257812 -1.285156 2.6875 -1.390625 C 3.113281 -1.492188 3.4375 -1.664062 3.65625 -1.90625 C 3.875 -2.144531 4.023438 -2.484375 4.109375 -2.921875 C 4.191406 -3.367188 4.234375 -3.945312 4.234375 -4.65625 L 4.234375 -18.609375 C 4.234375 -19.304688 4.195312 -19.875 4.125 -20.3125 C 4.050781 -20.75 3.910156 -21.09375 3.703125 -21.34375 C 3.503906 -21.59375 3.21875 -21.757812 2.84375 -21.84375 C 2.476562 -21.9375 1.992188 -22.003906 1.390625 -22.046875 L 1.390625 -23.25 L 20.484375 -23.25 L 20.6875 -17.34375 L 19.390625 -17.34375 C 19.265625 -18.1875 19.070312 -18.882812 18.8125 -19.4375 C 18.550781 -19.988281 18.1875 -20.429688 17.71875 -20.765625 C 17.257812 -21.097656 16.660156 -21.328125 15.921875 -21.453125 C 15.191406 -21.585938 14.296875 -21.65625 13.234375 -21.65625 L 9.8125 -21.65625 C 9.289062 -21.65625 8.96875 -21.585938 8.84375 -21.453125 C 8.726562 -21.328125 8.671875 -21.019531 8.671875 -20.53125 Z M 8.671875 -12.859375 "/></g></g></g><g fill="#365b6d" fill-opacity="1"><g transform="translate(196.410345, 260.323409)"><g><path d="M 20.984375 -17.421875 C 20.984375 -15.753906 20.5 -14.351562 19.53125 -13.21875 C 18.570312 -12.09375 17.035156 -11.34375 14.921875 -10.96875 L 21.921875 -2.9375 C 22.410156 -2.363281 22.984375 -1.929688 23.640625 -1.640625 C 24.304688 -1.347656 24.984375 -1.203125 25.671875 -1.203125 L 25.671875 0 L 18.515625 0 L 11.03125 -9.1875 C 10.519531 -9.789062 10.078125 -10.195312 9.703125 -10.40625 C 9.335938 -10.613281 8.992188 -10.71875 8.671875 -10.71875 L 8.671875 -4.796875 C 8.671875 -4.054688 8.71875 -3.445312 8.8125 -2.96875 C 8.914062 -2.5 9.117188 -2.132812 9.421875 -1.875 C 9.722656 -1.613281 10.160156 -1.4375 10.734375 -1.34375 C 11.304688 -1.25 12.078125 -1.203125 13.046875 -1.203125 L 13.046875 0 L 1.0625 0 L 1.0625 -1.203125 C 1.71875 -1.203125 2.253906 -1.25 2.671875 -1.34375 C 3.085938 -1.4375 3.410156 -1.609375 3.640625 -1.859375 C 3.867188 -2.109375 4.023438 -2.457031 4.109375 -2.90625 C 4.191406 -3.363281 4.234375 -3.945312 4.234375 -4.65625 L 4.234375 -18.609375 C 4.234375 -19.304688 4.203125 -19.875 4.140625 -20.3125 C 4.078125 -20.75 3.941406 -21.09375 3.734375 -21.34375 C 3.535156 -21.59375 3.25 -21.757812 2.875 -21.84375 C 2.507812 -21.9375 2.015625 -22.003906 1.390625 -22.046875 L 1.390625 -23.25 L 11.84375 -23.25 C 14.757812 -23.25 17.007812 -22.734375 18.59375 -21.703125 C 20.1875 -20.679688 20.984375 -19.253906 20.984375 -17.421875 Z M 8.671875 -12.53125 L 10.625 -12.53125 C 12.519531 -12.53125 13.9375 -12.894531 14.875 -13.625 C 15.8125 -14.363281 16.28125 -15.582031 16.28125 -17.28125 C 16.28125 -18.5625 15.882812 -19.59375 15.09375 -20.375 C 14.3125 -21.164062 13.226562 -21.5625 11.84375 -21.5625 L 9.21875 -21.5625 C 8.851562 -21.5625 8.671875 -21.390625 8.671875 -21.046875 Z M 8.671875 -12.53125 "/></g></g></g><g fill="#365b6d" fill-opacity="1"><g transform="translate(229.079335, 260.323409)"><g><path d="M 1.625 -7.703125 L 2.8125 -7.703125 C 3.09375 -5.785156 3.859375 -4.28125 5.109375 -3.1875 C 6.359375 -2.09375 7.894531 -1.546875 9.71875 -1.546875 C 10.46875 -1.546875 11.15625 -1.632812 11.78125 -1.8125 C 12.40625 -1.988281 12.9375 -2.242188 13.375 -2.578125 C 13.820312 -2.910156 14.164062 -3.300781 14.40625 -3.75 C 14.644531 -4.207031 14.765625 -4.71875 14.765625 -5.28125 C 14.765625 -5.769531 14.6875 -6.1875 14.53125 -6.53125 C 14.382812 -6.882812 14.097656 -7.226562 13.671875 -7.5625 C 13.253906 -7.894531 12.675781 -8.234375 11.9375 -8.578125 C 11.207031 -8.921875 10.257812 -9.3125 9.09375 -9.75 C 6.738281 -10.65625 4.992188 -11.707031 3.859375 -12.90625 C 2.734375 -14.101562 2.171875 -15.519531 2.171875 -17.15625 C 2.171875 -18.101562 2.351562 -18.96875 2.71875 -19.75 C 3.082031 -20.539062 3.585938 -21.21875 4.234375 -21.78125 C 4.890625 -22.34375 5.675781 -22.78125 6.59375 -23.09375 C 7.507812 -23.40625 8.523438 -23.5625 9.640625 -23.5625 C 10.660156 -23.5625 11.625 -23.398438 12.53125 -23.078125 C 13.4375 -22.753906 14.332031 -22.269531 15.21875 -21.625 L 15.765625 -23.140625 L 16.484375 -23.140625 L 16.828125 -16.609375 L 15.640625 -16.609375 C 15.160156 -18.265625 14.40625 -19.53125 13.375 -20.40625 C 12.351562 -21.28125 11.164062 -21.71875 9.8125 -21.71875 C 8.5625 -21.71875 7.550781 -21.410156 6.78125 -20.796875 C 6.007812 -20.179688 5.625 -19.390625 5.625 -18.421875 C 5.625 -18.003906 5.691406 -17.628906 5.828125 -17.296875 C 5.972656 -16.960938 6.234375 -16.644531 6.609375 -16.34375 C 6.992188 -16.039062 7.519531 -15.734375 8.1875 -15.421875 C 8.851562 -15.109375 9.707031 -14.757812 10.75 -14.375 C 12.15625 -13.832031 13.359375 -13.285156 14.359375 -12.734375 C 15.359375 -12.179688 16.175781 -11.585938 16.8125 -10.953125 C 17.445312 -10.316406 17.914062 -9.644531 18.21875 -8.9375 C 18.519531 -8.238281 18.671875 -7.460938 18.671875 -6.609375 C 18.671875 -5.585938 18.445312 -4.648438 18 -3.796875 C 17.5625 -2.953125 16.941406 -2.226562 16.140625 -1.625 C 15.347656 -1.019531 14.398438 -0.546875 13.296875 -0.203125 C 12.203125 0.128906 10.992188 0.296875 9.671875 0.296875 C 8.460938 0.296875 7.375 0.132812 6.40625 -0.1875 C 5.4375 -0.519531 4.4375 -1.0625 3.40625 -1.8125 L 2.8125 0 L 2.078125 0 Z M 1.625 -7.703125 "/></g></g></g><g fill="#365b6d" fill-opacity="1"><g transform="translate(257.15927, 260.323409)"><g><path d="M 11.875 0 L 1.09375 0 L 1.09375 -1.203125 C 1.769531 -1.222656 2.316406 -1.289062 2.734375 -1.40625 C 3.148438 -1.519531 3.46875 -1.726562 3.6875 -2.03125 C 3.90625 -2.332031 4.054688 -2.757812 4.140625 -3.3125 C 4.222656 -3.863281 4.265625 -4.613281 4.265625 -5.5625 L 4.265625 -17.703125 C 4.265625 -18.546875 4.226562 -19.242188 4.15625 -19.796875 C 4.082031 -20.347656 3.941406 -20.785156 3.734375 -21.109375 C 3.535156 -21.429688 3.25 -21.65625 2.875 -21.78125 C 2.507812 -21.914062 2.015625 -22.003906 1.390625 -22.046875 L 1.390625 -23.25 L 11.5625 -23.25 L 11.5625 -22.046875 C 10.9375 -22.003906 10.4375 -21.914062 10.0625 -21.78125 C 9.695312 -21.65625 9.410156 -21.429688 9.203125 -21.109375 C 9.003906 -20.785156 8.867188 -20.347656 8.796875 -19.796875 C 8.734375 -19.242188 8.703125 -18.546875 8.703125 -17.703125 L 8.703125 -5.5625 C 8.703125 -4.613281 8.734375 -3.863281 8.796875 -3.3125 C 8.867188 -2.757812 9.019531 -2.332031 9.25 -2.03125 C 9.488281 -1.726562 9.8125 -1.519531 10.21875 -1.40625 C 10.632812 -1.289062 11.1875 -1.222656 11.875 -1.203125 Z M 11.875 0 "/></g></g></g><g fill="#365b6d" fill-opacity="1"><g transform="translate(278.174461, 260.323409)"><g><path d="M 24.609375 -16.609375 L 23.3125 -16.609375 C 23.25 -17.597656 23.101562 -18.421875 22.875 -19.078125 C 22.644531 -19.734375 22.316406 -20.253906 21.890625 -20.640625 C 21.472656 -21.035156 20.960938 -21.304688 20.359375 -21.453125 C 19.753906 -21.609375 19.050781 -21.6875 18.25 -21.6875 C 17.457031 -21.6875 16.820312 -21.671875 16.34375 -21.640625 C 15.875 -21.609375 15.515625 -21.554688 15.265625 -21.484375 C 15.015625 -21.421875 14.847656 -21.328125 14.765625 -21.203125 C 14.691406 -21.078125 14.65625 -20.925781 14.65625 -20.75 L 14.65625 -4.921875 C 14.65625 -4.273438 14.695312 -3.71875 14.78125 -3.25 C 14.875 -2.789062 15.0625 -2.414062 15.34375 -2.125 C 15.625 -1.832031 16.035156 -1.609375 16.578125 -1.453125 C 17.117188 -1.304688 17.832031 -1.222656 18.71875 -1.203125 L 18.71875 0 L 6.078125 0 L 6.078125 -1.203125 C 6.984375 -1.222656 7.707031 -1.304688 8.25 -1.453125 C 8.789062 -1.609375 9.207031 -1.832031 9.5 -2.125 C 9.789062 -2.414062 9.976562 -2.789062 10.0625 -3.25 C 10.15625 -3.71875 10.203125 -4.273438 10.203125 -4.921875 L 10.203125 -20.75 C 10.203125 -20.925781 10.164062 -21.078125 10.09375 -21.203125 C 10.03125 -21.328125 9.882812 -21.421875 9.65625 -21.484375 C 9.4375 -21.554688 9.117188 -21.609375 8.703125 -21.640625 C 8.296875 -21.671875 7.757812 -21.6875 7.09375 -21.6875 C 6.375 -21.6875 5.679688 -21.648438 5.015625 -21.578125 C 4.347656 -21.503906 3.757812 -21.300781 3.25 -20.96875 C 2.75 -20.644531 2.34375 -20.144531 2.03125 -19.46875 C 1.726562 -18.789062 1.566406 -17.835938 1.546875 -16.609375 L 0.359375 -16.609375 L 0.671875 -23.25 L 24.3125 -23.25 Z M 24.609375 -16.609375 "/></g></g></g><g fill="#365b6d" fill-opacity="1"><g transform="translate(311.205752, 260.323409)"><g><path d="M 3.046875 -19.453125 C 2.742188 -19.972656 2.46875 -20.40625 2.21875 -20.75 C 1.96875 -21.09375 1.710938 -21.359375 1.453125 -21.546875 C 1.191406 -21.742188 0.910156 -21.875 0.609375 -21.9375 C 0.304688 -22.007812 -0.0351562 -22.046875 -0.421875 -22.046875 L -0.421875 -23.25 L 9.71875 -23.25 L 9.71875 -22.046875 C 8.875 -22.046875 8.28125 -21.960938 7.9375 -21.796875 C 7.601562 -21.640625 7.4375 -21.398438 7.4375 -21.078125 C 7.4375 -20.878906 7.492188 -20.640625 7.609375 -20.359375 C 7.734375 -20.078125 7.925781 -19.691406 8.1875 -19.203125 L 12.5 -10.96875 L 12.625 -10.96875 L 16.4375 -17.3125 C 17.09375 -18.4375 17.550781 -19.273438 17.8125 -19.828125 C 18.082031 -20.378906 18.21875 -20.816406 18.21875 -21.140625 C 18.21875 -21.484375 18.0625 -21.71875 17.75 -21.84375 C 17.4375 -21.976562 16.851562 -22.046875 16 -22.046875 L 16 -23.25 L 23.59375 -23.25 L 23.59375 -22.046875 C 23.144531 -22.046875 22.738281 -21.972656 22.375 -21.828125 C 22.019531 -21.691406 21.644531 -21.414062 21.25 -21 C 20.851562 -20.59375 20.40625 -20.019531 19.90625 -19.28125 C 19.414062 -18.550781 18.832031 -17.59375 18.15625 -16.40625 L 13.75 -8.84375 L 13.75 -5.765625 C 13.75 -4.765625 13.789062 -3.960938 13.875 -3.359375 C 13.96875 -2.753906 14.128906 -2.296875 14.359375 -1.984375 C 14.585938 -1.671875 14.90625 -1.460938 15.3125 -1.359375 C 15.71875 -1.253906 16.242188 -1.203125 16.890625 -1.203125 L 16.890625 0 L 6.125 0 L 6.125 -1.203125 C 6.75 -1.203125 7.269531 -1.253906 7.6875 -1.359375 C 8.101562 -1.460938 8.429688 -1.664062 8.671875 -1.96875 C 8.910156 -2.269531 9.070312 -2.707031 9.15625 -3.28125 C 9.25 -3.851562 9.296875 -4.613281 9.296875 -5.5625 L 9.296875 -8.34375 Z M 3.046875 -19.453125 "/></g></g></g></svg>