<svg xmlns="http://www.w3.org/2000/svg" xmlns:xlink="http://www.w3.org/1999/xlink" width="500" zoomAndPan="magnify" viewBox="0 0 375 374.999991" height="500" preserveAspectRatio="xMidYMid meet" version="1.0"><defs><g/><clipPath id="4f89450107"><path d="M 50 182 L 72 182 L 72 213.597656 L 50 213.597656 Z M 50 182 " clip-rule="nonzero"/></clipPath><clipPath id="d1fe79bd6f"><path d="M 38.203125 161.621094 L 84.425781 161.621094 L 84.425781 207 L 38.203125 207 Z M 38.203125 161.621094 " clip-rule="nonzero"/></clipPath></defs><g clip-path="url(#4f89450107)"><path fill="#ffffff" d="M 53.371094 182.761719 C 52.6875 189.921875 52.046875 193.195312 50.710938 200.054688 C 53.964844 202.519531 60.355469 213.398438 60.355469 213.398438 L 60.355469 198.28125 C 58.730469 197.867188 57.515625 196.554688 57.515625 194.636719 C 57.515625 192.738281 59.195312 190.90625 61.265625 190.90625 C 63.339844 190.90625 64.996094 192.75 64.996094 194.636719 C 64.996094 196.542969 63.796875 197.867188 62.179688 198.28125 L 62.179688 213.398438 C 62.179688 213.398438 68.570312 202.519531 71.824219 200.054688 C 70.488281 193.195312 69.847656 189.921875 69.164062 182.761719 L 61.265625 186.296875 Z M 53.371094 182.761719 " fill-opacity="1" fill-rule="nonzero"/></g><path fill="#ffffff" d="M 61.265625 171.582031 L 75.730469 178.070312 L 61.265625 184.554688 L 49.703125 179.375 L 50.441406 185.914062 L 49.457031 187.207031 L 48.460938 185.914062 L 49.226562 179.15625 L 46.792969 178.070312 Z M 61.265625 171.582031 " fill-opacity="1" fill-rule="nonzero"/><g clip-path="url(#d1fe79bd6f)"><path fill="#ffffff" d="M 61.265625 161.597656 C 67.628906 161.597656 73.398438 164.1875 77.554688 168.351562 C 81.730469 172.527344 84.308594 178.296875 84.308594 184.660156 C 84.308594 191.019531 81.738281 196.792969 77.554688 200.945312 C 75.160156 203.359375 72.230469 205.234375 68.945312 206.394531 C 69.609375 205.464844 70.28125 204.539062 70.996094 203.660156 C 71.410156 203.140625 71.929688 202.519531 72.457031 202.011719 C 73.691406 201.203125 74.828125 200.28125 75.867188 199.257812 C 79.59375 195.507812 81.90625 190.347656 81.90625 184.648438 C 81.90625 178.949219 79.605469 173.769531 75.867188 170.039062 C 72.113281 166.308594 66.957031 164 61.257812 164 C 55.558594 164 50.378906 166.300781 46.648438 170.039062 C 42.917969 173.78125 40.597656 178.949219 40.597656 184.648438 C 40.597656 190.347656 42.917969 195.507812 46.648438 199.257812 C 47.683594 200.273438 48.824219 201.203125 50.058594 202.011719 C 50.574219 202.511719 51.09375 203.140625 51.519531 203.660156 C 52.234375 204.53125 52.90625 205.464844 53.558594 206.394531 C 50.285156 205.234375 47.363281 203.359375 44.949219 200.945312 C 40.792969 196.792969 38.203125 191.019531 38.203125 184.660156 C 38.203125 178.296875 40.792969 172.527344 44.960938 168.351562 C 49.136719 164.1875 54.90625 161.597656 61.265625 161.597656 Z M 61.265625 161.597656 " fill-opacity="1" fill-rule="nonzero"/></g><g fill="#ffffff" fill-opacity="1"><g transform="translate(93.69008, 193.855782)"><g><path d="M 13.375 0 L 0.640625 0 L 0.640625 -0.734375 C 1.046875 -0.753906 1.378906 -0.789062 1.640625 -0.84375 C 1.898438 -0.90625 2.097656 -1.007812 2.234375 -1.15625 C 2.367188 -1.3125 2.460938 -1.523438 2.515625 -1.796875 C 2.566406 -2.066406 2.59375 -2.414062 2.59375 -2.84375 L 2.59375 -11.390625 C 2.59375 -11.816406 2.566406 -12.160156 2.515625 -12.421875 C 2.472656 -12.691406 2.390625 -12.90625 2.265625 -13.0625 C 2.148438 -13.21875 1.976562 -13.320312 1.75 -13.375 C 1.519531 -13.425781 1.21875 -13.46875 0.84375 -13.5 L 0.84375 -14.234375 L 7.234375 -14.234375 L 7.234375 -13.5 C 6.804688 -13.476562 6.46875 -13.4375 6.21875 -13.375 C 5.96875 -13.320312 5.773438 -13.210938 5.640625 -13.046875 C 5.503906 -12.890625 5.414062 -12.664062 5.375 -12.375 C 5.332031 -12.09375 5.3125 -11.71875 5.3125 -11.25 L 5.3125 -3.515625 C 5.3125 -2.992188 5.363281 -2.566406 5.46875 -2.234375 C 5.570312 -1.910156 5.75 -1.660156 6 -1.484375 C 6.257812 -1.304688 6.601562 -1.179688 7.03125 -1.109375 C 7.46875 -1.046875 8.007812 -1.015625 8.65625 -1.015625 C 9.363281 -1.015625 9.957031 -1.054688 10.4375 -1.140625 C 10.925781 -1.234375 11.332031 -1.398438 11.65625 -1.640625 C 11.976562 -1.878906 12.238281 -2.203125 12.4375 -2.609375 C 12.632812 -3.015625 12.800781 -3.546875 12.9375 -4.203125 L 13.671875 -4.203125 Z M 13.375 0 "/></g></g></g><g fill="#ffffff" fill-opacity="1"><g transform="translate(111.125799, 193.855782)"><g><path d="M 8.71875 -14.421875 C 9.832031 -14.421875 10.867188 -14.226562 11.828125 -13.84375 C 12.785156 -13.457031 13.617188 -12.929688 14.328125 -12.265625 C 15.035156 -11.609375 15.59375 -10.828125 16 -9.921875 C 16.414062 -9.023438 16.625 -8.050781 16.625 -7 C 16.625 -6.007812 16.414062 -5.078125 16 -4.203125 C 15.582031 -3.328125 15.019531 -2.5625 14.3125 -1.90625 C 13.601562 -1.257812 12.769531 -0.75 11.8125 -0.375 C 10.851562 0 9.820312 0.1875 8.71875 0.1875 C 7.625 0.1875 6.597656 0 5.640625 -0.375 C 4.679688 -0.75 3.84375 -1.257812 3.125 -1.90625 C 2.40625 -2.5625 1.84375 -3.328125 1.4375 -4.203125 C 1.03125 -5.078125 0.828125 -6.007812 0.828125 -7 C 0.828125 -8.050781 1.03125 -9.023438 1.4375 -9.921875 C 1.84375 -10.828125 2.398438 -11.609375 3.109375 -12.265625 C 3.816406 -12.929688 4.648438 -13.457031 5.609375 -13.84375 C 6.578125 -14.226562 7.613281 -14.421875 8.71875 -14.421875 Z M 8.71875 -1.015625 C 9.4375 -1.015625 10.082031 -1.148438 10.65625 -1.421875 C 11.238281 -1.703125 11.734375 -2.097656 12.140625 -2.609375 C 12.546875 -3.117188 12.859375 -3.738281 13.078125 -4.46875 C 13.296875 -5.207031 13.40625 -6.035156 13.40625 -6.953125 C 13.40625 -7.910156 13.296875 -8.773438 13.078125 -9.546875 C 12.859375 -10.316406 12.546875 -10.972656 12.140625 -11.515625 C 11.734375 -12.066406 11.238281 -12.488281 10.65625 -12.78125 C 10.082031 -13.070312 9.4375 -13.21875 8.71875 -13.21875 C 8 -13.21875 7.351562 -13.070312 6.78125 -12.78125 C 6.207031 -12.488281 5.710938 -12.066406 5.296875 -11.515625 C 4.890625 -10.972656 4.578125 -10.316406 4.359375 -9.546875 C 4.148438 -8.773438 4.046875 -7.910156 4.046875 -6.953125 C 4.046875 -6.035156 4.148438 -5.207031 4.359375 -4.46875 C 4.578125 -3.738281 4.890625 -3.117188 5.296875 -2.609375 C 5.710938 -2.097656 6.207031 -1.703125 6.78125 -1.421875 C 7.351562 -1.148438 8 -1.015625 8.71875 -1.015625 Z M 8.71875 -1.015625 "/></g></g></g><g fill="#ffffff" fill-opacity="1"><g transform="translate(132.037564, 193.855782)"><g><path d="M 0.640625 0 L 0.640625 -0.734375 C 1.046875 -0.753906 1.375 -0.789062 1.625 -0.84375 C 1.882812 -0.894531 2.082031 -1 2.21875 -1.15625 C 2.363281 -1.3125 2.460938 -1.519531 2.515625 -1.78125 C 2.566406 -2.050781 2.59375 -2.40625 2.59375 -2.84375 L 2.59375 -11.390625 C 2.59375 -11.816406 2.570312 -12.160156 2.53125 -12.421875 C 2.5 -12.691406 2.421875 -12.90625 2.296875 -13.0625 C 2.171875 -13.21875 2 -13.320312 1.78125 -13.375 C 1.5625 -13.425781 1.28125 -13.46875 0.9375 -13.5 L 0.9375 -14.234375 L 7.96875 -14.234375 C 9.144531 -14.234375 10.234375 -14.046875 11.234375 -13.671875 C 12.234375 -13.304688 13.097656 -12.796875 13.828125 -12.140625 C 14.554688 -11.492188 15.125 -10.71875 15.53125 -9.8125 C 15.9375 -8.914062 16.140625 -7.9375 16.140625 -6.875 C 16.140625 -5.863281 15.945312 -4.9375 15.5625 -4.09375 C 15.175781 -3.25 14.640625 -2.523438 13.953125 -1.921875 C 13.273438 -1.316406 12.457031 -0.84375 11.5 -0.5 C 10.550781 -0.164062 9.503906 0 8.359375 0 Z M 5.625 -13.109375 C 5.414062 -13.109375 5.3125 -13.003906 5.3125 -12.796875 L 5.3125 -3.234375 C 5.3125 -2.515625 5.53125 -1.984375 5.96875 -1.640625 C 6.414062 -1.296875 7.097656 -1.125 8.015625 -1.125 C 9.628906 -1.125 10.867188 -1.609375 11.734375 -2.578125 C 12.609375 -3.554688 13.046875 -4.976562 13.046875 -6.84375 C 13.046875 -7.820312 12.925781 -8.695312 12.6875 -9.46875 C 12.457031 -10.25 12.117188 -10.90625 11.671875 -11.4375 C 11.234375 -11.976562 10.695312 -12.390625 10.0625 -12.671875 C 9.425781 -12.960938 8.71875 -13.109375 7.9375 -13.109375 Z M 5.625 -13.109375 "/></g></g></g><g fill="#ffffff" fill-opacity="1"><g transform="translate(152.505582, 193.855782)"><g/></g></g><g fill="#ffffff" fill-opacity="1"><g transform="translate(160.899881, 193.855782)"><g><path d="M 14 -5.734375 C 14 -4.679688 13.882812 -3.78125 13.65625 -3.03125 C 13.425781 -2.289062 13.066406 -1.679688 12.578125 -1.203125 C 12.097656 -0.722656 11.476562 -0.367188 10.71875 -0.140625 C 9.96875 0.078125 9.0625 0.1875 8 0.1875 C 6.019531 0.1875 4.570312 -0.226562 3.65625 -1.0625 C 2.738281 -1.894531 2.28125 -3.222656 2.28125 -5.046875 L 2.28125 -10.109375 C 2.28125 -10.585938 2.269531 -10.988281 2.25 -11.3125 C 2.238281 -11.644531 2.21875 -11.921875 2.1875 -12.140625 C 2.164062 -12.367188 2.132812 -12.550781 2.09375 -12.6875 C 2.050781 -12.832031 2 -12.953125 1.9375 -13.046875 C 1.832031 -13.222656 1.671875 -13.34375 1.453125 -13.40625 C 1.242188 -13.46875 0.925781 -13.5 0.5 -13.5 L 0.5 -14.234375 L 7.140625 -14.234375 L 7.140625 -13.5 C 6.617188 -13.5 6.234375 -13.46875 5.984375 -13.40625 C 5.742188 -13.351562 5.554688 -13.25 5.421875 -13.09375 C 5.328125 -12.988281 5.253906 -12.863281 5.203125 -12.71875 C 5.148438 -12.582031 5.109375 -12.398438 5.078125 -12.171875 C 5.046875 -11.941406 5.019531 -11.660156 5 -11.328125 C 4.988281 -10.992188 4.984375 -10.585938 4.984375 -10.109375 L 4.984375 -5.265625 C 4.984375 -3.859375 5.28125 -2.816406 5.875 -2.140625 C 6.476562 -1.472656 7.40625 -1.140625 8.65625 -1.140625 C 11.1875 -1.140625 12.453125 -2.550781 12.453125 -5.375 L 12.453125 -9.65625 C 12.453125 -10.164062 12.441406 -10.601562 12.421875 -10.96875 C 12.410156 -11.34375 12.382812 -11.660156 12.34375 -11.921875 C 12.300781 -12.179688 12.242188 -12.394531 12.171875 -12.5625 C 12.097656 -12.738281 12.015625 -12.882812 11.921875 -13 C 11.742188 -13.164062 11.519531 -13.289062 11.25 -13.375 C 10.976562 -13.457031 10.601562 -13.5 10.125 -13.5 L 10.125 -14.234375 L 16.125 -14.234375 L 16.125 -13.5 C 15.664062 -13.5 15.3125 -13.460938 15.0625 -13.390625 C 14.8125 -13.328125 14.617188 -13.207031 14.484375 -13.03125 C 14.390625 -12.914062 14.3125 -12.769531 14.25 -12.59375 C 14.1875 -12.414062 14.132812 -12.191406 14.09375 -11.921875 C 14.0625 -11.660156 14.035156 -11.34375 14.015625 -10.96875 C 14.003906 -10.601562 14 -10.164062 14 -9.65625 Z M 14 -5.734375 "/></g></g></g><g fill="#ffffff" fill-opacity="1"><g transform="translate(180.646809, 193.855782)"><g><path d="M 12.390625 0.1875 L 4.203125 -11.484375 L 4.125 -11.484375 L 4.125 -3.53125 C 4.125 -2.914062 4.144531 -2.425781 4.1875 -2.0625 C 4.226562 -1.707031 4.316406 -1.429688 4.453125 -1.234375 C 4.597656 -1.035156 4.796875 -0.90625 5.046875 -0.84375 C 5.304688 -0.789062 5.640625 -0.753906 6.046875 -0.734375 L 6.046875 0 L 0.546875 0 L 0.546875 -0.734375 C 1.003906 -0.753906 1.367188 -0.796875 1.640625 -0.859375 C 1.921875 -0.929688 2.140625 -1.054688 2.296875 -1.234375 C 2.453125 -1.421875 2.554688 -1.679688 2.609375 -2.015625 C 2.660156 -2.359375 2.6875 -2.820312 2.6875 -3.40625 L 2.6875 -10.828125 C 2.6875 -11.347656 2.660156 -11.773438 2.609375 -12.109375 C 2.554688 -12.453125 2.460938 -12.722656 2.328125 -12.921875 C 2.191406 -13.117188 2 -13.253906 1.75 -13.328125 C 1.5 -13.410156 1.160156 -13.46875 0.734375 -13.5 L 0.734375 -14.234375 L 5.890625 -14.234375 L 13.34375 -3.546875 L 13.421875 -3.546875 L 13.421875 -10.703125 C 13.421875 -11.304688 13.398438 -11.789062 13.359375 -12.15625 C 13.316406 -12.519531 13.222656 -12.800781 13.078125 -13 C 12.929688 -13.195312 12.734375 -13.320312 12.484375 -13.375 C 12.234375 -13.4375 11.90625 -13.476562 11.5 -13.5 L 11.5 -14.234375 L 16.984375 -14.234375 L 16.984375 -13.5 C 16.523438 -13.476562 16.15625 -13.429688 15.875 -13.359375 C 15.601562 -13.296875 15.390625 -13.171875 15.234375 -12.984375 C 15.085938 -12.804688 14.988281 -12.546875 14.9375 -12.203125 C 14.882812 -11.859375 14.859375 -11.398438 14.859375 -10.828125 L 14.859375 0.1875 Z M 12.390625 0.1875 "/></g></g></g><g fill="#ffffff" fill-opacity="1"><g transform="translate(201.503112, 193.855782)"><g><path d="M 7.265625 0 L 0.671875 0 L 0.671875 -0.734375 C 1.085938 -0.753906 1.421875 -0.796875 1.671875 -0.859375 C 1.921875 -0.929688 2.113281 -1.054688 2.25 -1.234375 C 2.382812 -1.421875 2.476562 -1.679688 2.53125 -2.015625 C 2.582031 -2.359375 2.609375 -2.820312 2.609375 -3.40625 L 2.609375 -10.828125 C 2.609375 -11.347656 2.585938 -11.773438 2.546875 -12.109375 C 2.503906 -12.453125 2.421875 -12.722656 2.296875 -12.921875 C 2.171875 -13.117188 1.992188 -13.253906 1.765625 -13.328125 C 1.535156 -13.410156 1.226562 -13.46875 0.84375 -13.5 L 0.84375 -14.234375 L 7.078125 -14.234375 L 7.078125 -13.5 C 6.691406 -13.46875 6.382812 -13.410156 6.15625 -13.328125 C 5.9375 -13.253906 5.765625 -13.117188 5.640625 -12.921875 C 5.515625 -12.722656 5.429688 -12.453125 5.390625 -12.109375 C 5.347656 -11.773438 5.328125 -11.347656 5.328125 -10.828125 L 5.328125 -3.40625 C 5.328125 -2.820312 5.347656 -2.359375 5.390625 -2.015625 C 5.429688 -1.679688 5.519531 -1.421875 5.65625 -1.234375 C 5.800781 -1.054688 6 -0.929688 6.25 -0.859375 C 6.507812 -0.796875 6.847656 -0.753906 7.265625 -0.734375 Z M 7.265625 0 "/></g></g></g><g fill="#ffffff" fill-opacity="1"><g transform="translate(212.911215, 193.855782)"><g><path d="M 8.09375 -3.171875 L 10.5 -9.328125 C 10.726562 -9.929688 10.914062 -10.425781 11.0625 -10.8125 C 11.207031 -11.195312 11.316406 -11.507812 11.390625 -11.75 C 11.460938 -12 11.507812 -12.195312 11.53125 -12.34375 C 11.5625 -12.488281 11.578125 -12.628906 11.578125 -12.765625 C 11.578125 -13.066406 11.460938 -13.265625 11.234375 -13.359375 C 11.015625 -13.453125 10.570312 -13.5 9.90625 -13.5 L 9.90625 -14.234375 L 15.15625 -14.234375 L 15.15625 -13.5 C 14.132812 -13.5 13.425781 -13 13.03125 -12 L 8.171875 0.1875 L 6.796875 0.1875 L 2.390625 -10.609375 C 2.140625 -11.191406 1.914062 -11.664062 1.71875 -12.03125 C 1.519531 -12.40625 1.3125 -12.695312 1.09375 -12.90625 C 0.875 -13.125 0.628906 -13.269531 0.359375 -13.34375 C 0.0976562 -13.425781 -0.210938 -13.46875 -0.578125 -13.46875 L -0.578125 -14.234375 L 6.421875 -14.234375 L 6.421875 -13.46875 C 6.097656 -13.457031 5.828125 -13.4375 5.609375 -13.40625 C 5.390625 -13.382812 5.21875 -13.347656 5.09375 -13.296875 C 4.976562 -13.242188 4.894531 -13.171875 4.84375 -13.078125 C 4.789062 -12.984375 4.765625 -12.867188 4.765625 -12.734375 C 4.765625 -12.566406 4.796875 -12.363281 4.859375 -12.125 C 4.921875 -11.894531 5.015625 -11.613281 5.140625 -11.28125 Z M 8.09375 -3.171875 "/></g></g></g><g fill="#ffffff" fill-opacity="1"><g transform="translate(231.271419, 193.855782)"><g><path d="M 5.3125 -7.875 C 6.09375 -7.875 6.722656 -7.894531 7.203125 -7.9375 C 7.691406 -7.988281 8.066406 -8.09375 8.328125 -8.25 C 8.585938 -8.40625 8.773438 -8.628906 8.890625 -8.921875 C 9.003906 -9.222656 9.09375 -9.625 9.15625 -10.125 L 9.828125 -10.125 L 9.828125 -4.71875 L 9.15625 -4.71875 C 9.070312 -5.207031 8.96875 -5.597656 8.84375 -5.890625 C 8.726562 -6.191406 8.535156 -6.414062 8.265625 -6.5625 C 7.992188 -6.71875 7.625 -6.816406 7.15625 -6.859375 C 6.695312 -6.910156 6.082031 -6.9375 5.3125 -6.9375 L 5.3125 -3.125 C 5.3125 -2.726562 5.363281 -2.394531 5.46875 -2.125 C 5.570312 -1.851562 5.742188 -1.632812 5.984375 -1.46875 C 6.234375 -1.300781 6.5625 -1.179688 6.96875 -1.109375 C 7.375 -1.046875 7.875 -1.015625 8.46875 -1.015625 C 9.164062 -1.015625 9.757812 -1.0625 10.25 -1.15625 C 10.738281 -1.257812 11.140625 -1.429688 11.453125 -1.671875 C 11.773438 -1.921875 12.035156 -2.253906 12.234375 -2.671875 C 12.429688 -3.085938 12.597656 -3.609375 12.734375 -4.234375 L 13.46875 -4.234375 L 13.171875 0 L 0.640625 0 L 0.640625 -0.734375 C 1.046875 -0.753906 1.378906 -0.789062 1.640625 -0.84375 C 1.898438 -0.90625 2.097656 -1.007812 2.234375 -1.15625 C 2.367188 -1.3125 2.460938 -1.523438 2.515625 -1.796875 C 2.566406 -2.066406 2.59375 -2.414062 2.59375 -2.84375 L 2.59375 -11.390625 C 2.59375 -11.816406 2.566406 -12.160156 2.515625 -12.421875 C 2.472656 -12.691406 2.390625 -12.90625 2.265625 -13.0625 C 2.148438 -13.21875 1.976562 -13.320312 1.75 -13.375 C 1.519531 -13.425781 1.21875 -13.46875 0.84375 -13.5 L 0.84375 -14.234375 L 12.53125 -14.234375 L 12.65625 -10.609375 L 11.859375 -10.609375 C 11.785156 -11.128906 11.671875 -11.554688 11.515625 -11.890625 C 11.359375 -12.234375 11.132812 -12.503906 10.84375 -12.703125 C 10.5625 -12.910156 10.195312 -13.050781 9.75 -13.125 C 9.300781 -13.207031 8.75 -13.25 8.09375 -13.25 L 6 -13.25 C 5.6875 -13.25 5.492188 -13.207031 5.421875 -13.125 C 5.347656 -13.050781 5.3125 -12.863281 5.3125 -12.5625 Z M 5.3125 -7.875 "/></g></g></g><g fill="#ffffff" fill-opacity="1"><g transform="translate(248.873543, 193.855782)"><g><path d="M 12.84375 -10.671875 C 12.84375 -9.640625 12.546875 -8.78125 11.953125 -8.09375 C 11.367188 -7.40625 10.425781 -6.941406 9.125 -6.703125 L 13.421875 -1.796875 C 13.710938 -1.453125 14.0625 -1.1875 14.46875 -1 C 14.875 -0.820312 15.289062 -0.734375 15.71875 -0.734375 L 15.71875 0 L 11.328125 0 L 6.75 -5.625 C 6.4375 -5.988281 6.164062 -6.234375 5.9375 -6.359375 C 5.707031 -6.492188 5.5 -6.5625 5.3125 -6.5625 L 5.3125 -2.9375 C 5.3125 -2.476562 5.335938 -2.101562 5.390625 -1.8125 C 5.453125 -1.53125 5.578125 -1.304688 5.765625 -1.140625 C 5.953125 -0.984375 6.21875 -0.875 6.5625 -0.8125 C 6.914062 -0.757812 7.390625 -0.734375 7.984375 -0.734375 L 7.984375 0 L 0.640625 0 L 0.640625 -0.734375 C 1.046875 -0.734375 1.375 -0.757812 1.625 -0.8125 C 1.882812 -0.875 2.082031 -0.984375 2.21875 -1.140625 C 2.363281 -1.296875 2.460938 -1.507812 2.515625 -1.78125 C 2.566406 -2.0625 2.59375 -2.414062 2.59375 -2.84375 L 2.59375 -11.390625 C 2.59375 -11.816406 2.570312 -12.160156 2.53125 -12.421875 C 2.5 -12.691406 2.421875 -12.90625 2.296875 -13.0625 C 2.171875 -13.21875 1.992188 -13.320312 1.765625 -13.375 C 1.535156 -13.425781 1.226562 -13.46875 0.84375 -13.5 L 0.84375 -14.234375 L 7.25 -14.234375 C 9.03125 -14.234375 10.40625 -13.914062 11.375 -13.28125 C 12.351562 -12.65625 12.84375 -11.785156 12.84375 -10.671875 Z M 5.3125 -7.671875 L 6.5 -7.671875 C 7.664062 -7.671875 8.535156 -7.894531 9.109375 -8.34375 C 9.679688 -8.789062 9.96875 -9.535156 9.96875 -10.578125 C 9.96875 -11.359375 9.722656 -11.988281 9.234375 -12.46875 C 8.753906 -12.957031 8.09375 -13.203125 7.25 -13.203125 L 5.640625 -13.203125 C 5.421875 -13.203125 5.3125 -13.097656 5.3125 -12.890625 Z M 5.3125 -7.671875 "/></g></g></g><g fill="#ffffff" fill-opacity="1"><g transform="translate(267.418638, 193.855782)"><g><path d="M 1 -4.71875 L 1.71875 -4.71875 C 1.894531 -3.539062 2.363281 -2.613281 3.125 -1.9375 C 3.882812 -1.269531 4.828125 -0.9375 5.953125 -0.9375 C 6.410156 -0.9375 6.828125 -0.992188 7.203125 -1.109375 C 7.585938 -1.222656 7.914062 -1.378906 8.1875 -1.578125 C 8.457031 -1.785156 8.664062 -2.023438 8.8125 -2.296875 C 8.957031 -2.578125 9.03125 -2.890625 9.03125 -3.234375 C 9.03125 -3.523438 8.984375 -3.78125 8.890625 -4 C 8.804688 -4.21875 8.632812 -4.425781 8.375 -4.625 C 8.113281 -4.832031 7.757812 -5.039062 7.3125 -5.25 C 6.863281 -5.457031 6.28125 -5.695312 5.5625 -5.96875 C 4.125 -6.519531 3.054688 -7.160156 2.359375 -7.890625 C 1.671875 -8.628906 1.328125 -9.5 1.328125 -10.5 C 1.328125 -11.082031 1.4375 -11.613281 1.65625 -12.09375 C 1.882812 -12.570312 2.195312 -12.984375 2.59375 -13.328125 C 3 -13.671875 3.476562 -13.9375 4.03125 -14.125 C 4.59375 -14.320312 5.210938 -14.421875 5.890625 -14.421875 C 6.523438 -14.421875 7.117188 -14.320312 7.671875 -14.125 C 8.222656 -13.925781 8.769531 -13.628906 9.3125 -13.234375 L 9.65625 -14.15625 L 10.09375 -14.15625 L 10.296875 -10.171875 L 9.578125 -10.171875 C 9.273438 -11.179688 8.8125 -11.953125 8.1875 -12.484375 C 7.5625 -13.023438 6.832031 -13.296875 6 -13.296875 C 5.238281 -13.296875 4.617188 -13.101562 4.140625 -12.71875 C 3.671875 -12.34375 3.4375 -11.863281 3.4375 -11.28125 C 3.4375 -11.019531 3.476562 -10.785156 3.5625 -10.578125 C 3.65625 -10.378906 3.816406 -10.1875 4.046875 -10 C 4.285156 -9.8125 4.609375 -9.625 5.015625 -9.4375 C 5.421875 -9.25 5.941406 -9.035156 6.578125 -8.796875 C 7.441406 -8.460938 8.175781 -8.125 8.78125 -7.78125 C 9.394531 -7.445312 9.894531 -7.085938 10.28125 -6.703125 C 10.675781 -6.316406 10.960938 -5.90625 11.140625 -5.46875 C 11.328125 -5.039062 11.421875 -4.566406 11.421875 -4.046875 C 11.421875 -3.421875 11.285156 -2.847656 11.015625 -2.328125 C 10.742188 -1.804688 10.363281 -1.359375 9.875 -0.984375 C 9.394531 -0.617188 8.816406 -0.332031 8.140625 -0.125 C 7.472656 0.0820312 6.734375 0.1875 5.921875 0.1875 C 5.179688 0.1875 4.515625 0.0859375 3.921875 -0.109375 C 3.328125 -0.316406 2.71875 -0.648438 2.09375 -1.109375 L 1.71875 0 L 1.28125 0 Z M 1 -4.71875 "/></g></g></g><g fill="#ffffff" fill-opacity="1"><g transform="translate(283.153309, 193.855782)"><g><path d="M 7.265625 0 L 0.671875 0 L 0.671875 -0.734375 C 1.085938 -0.753906 1.421875 -0.796875 1.671875 -0.859375 C 1.921875 -0.929688 2.113281 -1.054688 2.25 -1.234375 C 2.382812 -1.421875 2.476562 -1.679688 2.53125 -2.015625 C 2.582031 -2.359375 2.609375 -2.820312 2.609375 -3.40625 L 2.609375 -10.828125 C 2.609375 -11.347656 2.585938 -11.773438 2.546875 -12.109375 C 2.503906 -12.453125 2.421875 -12.722656 2.296875 -12.921875 C 2.171875 -13.117188 1.992188 -13.253906 1.765625 -13.328125 C 1.535156 -13.410156 1.226562 -13.46875 0.84375 -13.5 L 0.84375 -14.234375 L 7.078125 -14.234375 L 7.078125 -13.5 C 6.691406 -13.46875 6.382812 -13.410156 6.15625 -13.328125 C 5.9375 -13.253906 5.765625 -13.117188 5.640625 -12.921875 C 5.515625 -12.722656 5.429688 -12.453125 5.390625 -12.109375 C 5.347656 -11.773438 5.328125 -11.347656 5.328125 -10.828125 L 5.328125 -3.40625 C 5.328125 -2.820312 5.347656 -2.359375 5.390625 -2.015625 C 5.429688 -1.679688 5.519531 -1.421875 5.65625 -1.234375 C 5.800781 -1.054688 6 -0.929688 6.25 -0.859375 C 6.507812 -0.796875 6.847656 -0.753906 7.265625 -0.734375 Z M 7.265625 0 "/></g></g></g><g fill="#ffffff" fill-opacity="1"><g transform="translate(294.561412, 193.855782)"><g><path d="M 15.0625 -10.171875 L 14.265625 -10.171875 C 14.234375 -10.773438 14.144531 -11.273438 14 -11.671875 C 13.863281 -12.078125 13.664062 -12.398438 13.40625 -12.640625 C 13.144531 -12.878906 12.828125 -13.039062 12.453125 -13.125 C 12.085938 -13.21875 11.660156 -13.265625 11.171875 -13.265625 C 10.679688 -13.265625 10.289062 -13.253906 10 -13.234375 C 9.71875 -13.222656 9.5 -13.195312 9.34375 -13.15625 C 9.1875 -13.113281 9.082031 -13.050781 9.03125 -12.96875 C 8.988281 -12.894531 8.96875 -12.804688 8.96875 -12.703125 L 8.96875 -3.015625 C 8.96875 -2.617188 8.992188 -2.28125 9.046875 -2 C 9.097656 -1.71875 9.210938 -1.484375 9.390625 -1.296875 C 9.566406 -1.117188 9.816406 -0.984375 10.140625 -0.890625 C 10.472656 -0.804688 10.910156 -0.753906 11.453125 -0.734375 L 11.453125 0 L 3.71875 0 L 3.71875 -0.734375 C 4.269531 -0.753906 4.710938 -0.804688 5.046875 -0.890625 C 5.378906 -0.984375 5.632812 -1.117188 5.8125 -1.296875 C 5.988281 -1.484375 6.101562 -1.71875 6.15625 -2 C 6.21875 -2.28125 6.25 -2.617188 6.25 -3.015625 L 6.25 -12.703125 C 6.25 -12.804688 6.226562 -12.894531 6.1875 -12.96875 C 6.144531 -13.050781 6.054688 -13.113281 5.921875 -13.15625 C 5.785156 -13.195312 5.585938 -13.222656 5.328125 -13.234375 C 5.078125 -13.253906 4.75 -13.265625 4.34375 -13.265625 C 3.894531 -13.265625 3.46875 -13.242188 3.0625 -13.203125 C 2.65625 -13.160156 2.296875 -13.035156 1.984375 -12.828125 C 1.679688 -12.628906 1.4375 -12.320312 1.25 -11.90625 C 1.0625 -11.5 0.957031 -10.921875 0.9375 -10.171875 L 0.21875 -10.171875 L 0.40625 -14.234375 L 14.875 -14.234375 Z M 15.0625 -10.171875 "/></g></g></g><g fill="#ffffff" fill-opacity="1"><g transform="translate(313.328384, 193.855782)"><g><path d="M 1.859375 -11.90625 C 1.679688 -12.226562 1.515625 -12.492188 1.359375 -12.703125 C 1.203125 -12.910156 1.039062 -13.070312 0.875 -13.1875 C 0.71875 -13.300781 0.546875 -13.378906 0.359375 -13.421875 C 0.179688 -13.472656 -0.0234375 -13.5 -0.265625 -13.5 L -0.265625 -14.234375 L 5.953125 -14.234375 L 5.953125 -13.5 C 5.429688 -13.5 5.066406 -13.445312 4.859375 -13.34375 C 4.648438 -13.25 4.546875 -13.101562 4.546875 -12.90625 C 4.546875 -12.78125 4.582031 -12.628906 4.65625 -12.453125 C 4.726562 -12.285156 4.847656 -12.050781 5.015625 -11.75 L 7.65625 -6.703125 L 7.71875 -6.703125 L 10.0625 -10.59375 C 10.46875 -11.28125 10.75 -11.789062 10.90625 -12.125 C 11.0625 -12.46875 11.140625 -12.738281 11.140625 -12.9375 C 11.140625 -13.144531 11.046875 -13.289062 10.859375 -13.375 C 10.671875 -13.457031 10.316406 -13.5 9.796875 -13.5 L 9.796875 -14.234375 L 14.4375 -14.234375 L 14.4375 -13.5 C 14.164062 -13.5 13.914062 -13.453125 13.6875 -13.359375 C 13.46875 -13.273438 13.238281 -13.109375 13 -12.859375 C 12.757812 -12.609375 12.488281 -12.253906 12.1875 -11.796875 C 11.882812 -11.347656 11.523438 -10.757812 11.109375 -10.03125 L 8.40625 -5.421875 L 8.40625 -3.53125 C 8.40625 -2.914062 8.429688 -2.421875 8.484375 -2.046875 C 8.546875 -1.679688 8.644531 -1.398438 8.78125 -1.203125 C 8.925781 -1.015625 9.117188 -0.890625 9.359375 -0.828125 C 9.609375 -0.765625 9.929688 -0.734375 10.328125 -0.734375 L 10.328125 0 L 3.75 0 L 3.75 -0.734375 C 4.132812 -0.734375 4.453125 -0.765625 4.703125 -0.828125 C 4.953125 -0.890625 5.148438 -1.015625 5.296875 -1.203125 C 5.453125 -1.390625 5.554688 -1.65625 5.609375 -2 C 5.660156 -2.351562 5.6875 -2.820312 5.6875 -3.40625 L 5.6875 -5.109375 Z M 1.859375 -11.90625 "/></g></g></g></svg>