<svg width="388" height="70" viewBox="0 0 388 70" fill="none" xmlns="http://www.w3.org/2000/svg">
<mask id="mask0_605_69" style="mask-type:luminance" maskUnits="userSpaceOnUse" x="16" y="27" width="30" height="43">
<path d="M16.6667 27.6667H46V69.7969H16.6667V27.6667Z" fill="white"/>
</mask>
<g mask="url(#mask0_605_69)">
<path d="M21.1614 28.6823C20.25 38.2292 19.3958 42.5938 17.6146 51.7396C21.9531 55.026 30.4739 69.5313 30.4739 69.5313V49.375C28.3073 48.8229 26.6875 47.0729 26.6875 44.5156C26.6875 41.9844 28.9271 39.5417 31.6875 39.5417C34.4531 39.5417 36.6614 42 36.6614 44.5156C36.6614 47.0573 35.0625 48.8229 32.9062 49.375V69.5313C32.9062 69.5313 41.4271 55.026 45.7656 51.7396C43.9844 42.5938 43.1302 38.2292 42.2187 28.6823L31.6875 33.3958L21.1614 28.6823Z" fill="white"/>
</g>
<path d="M31.6875 13.776L50.974 22.4271L31.6875 31.0729L16.2708 24.1667L17.2552 32.8854L15.9427 34.6094L14.6146 32.8854L15.6354 23.875L12.3906 22.4271L31.6875 13.776Z" fill="white"/>
<mask id="mask1_605_69" style="mask-type:luminance" maskUnits="userSpaceOnUse" x="0" y="0" width="63" height="61">
<path d="M0.9375 0.494797H62.5677V61H0.9375V0.494797Z" fill="white"/>
</mask>
<g mask="url(#mask1_605_69)">
<path d="M31.6875 0.463547C40.1719 0.463547 47.8646 3.91667 53.4063 9.46876C58.974 15.0365 62.4115 22.7292 62.4115 31.2135C62.4115 39.6927 58.9844 47.3906 53.4063 52.9271C50.2135 56.1458 46.3073 58.6458 41.9271 60.1927C42.8125 58.9531 43.7083 57.7188 44.6615 56.5469C45.2135 55.8542 45.9063 55.026 46.6094 54.349C48.2552 53.2708 49.7708 52.0417 51.1563 50.6771C56.125 45.6771 59.2083 38.7969 59.2083 31.1979C59.2083 23.599 56.1406 16.6927 51.1563 11.7188C46.151 6.7448 39.276 3.66667 31.6771 3.66667C24.0781 3.66667 17.1719 6.73438 12.1979 11.7188C7.22396 16.7083 4.13021 23.599 4.13021 31.1979C4.13021 38.7969 7.22396 45.6771 12.1979 50.6771C13.5781 52.0313 15.099 53.2708 16.7448 54.349C17.4323 55.0156 18.125 55.8542 18.6927 56.5469C19.6458 57.7083 20.5417 58.9531 21.4115 60.1927C17.0469 58.6458 13.151 56.1458 9.93229 52.9271C4.39063 47.3906 0.9375 39.6927 0.9375 31.2135C0.9375 22.7292 4.39062 15.0365 9.94792 9.46876C15.5156 3.91667 23.2083 0.463547 31.6875 0.463547Z" fill="white"/>
</g>
<path d="M92.7535 43.4744H75.7743V42.4952C76.316 42.4692 76.7587 42.4223 77.1076 42.3494C77.4514 42.2661 77.717 42.1306 77.8993 41.9327C78.0764 41.7244 78.2014 41.4431 78.2743 41.0786C78.342 40.7192 78.3785 40.2556 78.3785 39.6827V28.2869C78.3785 27.7192 78.342 27.2608 78.2743 26.9119C78.217 26.5525 78.1076 26.2661 77.941 26.0577C77.7847 25.8494 77.5555 25.714 77.2535 25.6411C76.9462 25.5733 76.5451 25.5161 76.0451 25.4744V24.4952H84.566V25.4744C83.993 25.5056 83.5451 25.5577 83.2118 25.6411C82.8785 25.714 82.618 25.8598 82.441 26.0786C82.2587 26.2869 82.1389 26.589 82.0868 26.9744C82.0295 27.3494 82.0035 27.8494 82.0035 28.4744V38.7869C82.0035 39.4848 82.0712 40.0525 82.2118 40.4952C82.3472 40.9275 82.5868 41.2608 82.9201 41.4952C83.2639 41.7348 83.7222 41.9015 84.2951 41.9952C84.8785 42.0786 85.5972 42.1202 86.4618 42.1202C87.4045 42.1202 88.1962 42.0681 88.8368 41.9536C89.4878 41.8286 90.0295 41.6098 90.4618 41.2869C90.8889 40.9692 91.2378 40.5369 91.5035 39.9952C91.7639 39.4536 91.9878 38.7452 92.1701 37.8702H93.1493L92.7535 43.4744Z" fill="white"/>
<path d="M109.793 24.2452C111.277 24.2452 112.657 24.5056 113.939 25.0161C115.215 25.5317 116.324 26.2348 117.272 27.1202C118.215 27.9952 118.959 29.0369 119.501 30.2452C120.053 31.4431 120.334 32.74 120.334 34.1411C120.334 35.464 120.053 36.7036 119.501 37.8702C118.944 39.0369 118.194 40.0577 117.251 40.9327C116.303 41.7973 115.194 42.4744 113.918 42.9744C112.636 43.4744 111.261 43.7244 109.793 43.7244C108.334 43.7244 106.965 43.4744 105.689 42.9744C104.407 42.4744 103.293 41.7973 102.334 40.9327C101.376 40.0577 100.626 39.0369 100.084 37.8702C99.5427 36.7036 99.2719 35.464 99.2719 34.1411C99.2719 32.74 99.5427 31.4431 100.084 30.2452C100.626 29.0369 101.366 27.9952 102.314 27.1202C103.256 26.2348 104.366 25.5317 105.647 25.0161C106.939 24.5056 108.319 24.2452 109.793 24.2452ZM109.793 42.1202C110.751 42.1202 111.61 41.9431 112.376 41.5786C113.152 41.2036 113.814 40.6775 114.355 39.9952C114.897 39.3181 115.314 38.49 115.605 37.5161C115.897 36.5317 116.043 35.4275 116.043 34.2036C116.043 32.9275 115.897 31.7765 115.605 30.7452C115.314 29.7192 114.897 28.8442 114.355 28.1202C113.814 27.3858 113.152 26.8233 112.376 26.4327C111.61 26.0473 110.751 25.8494 109.793 25.8494C108.834 25.8494 107.97 26.0473 107.209 26.4327C106.444 26.8233 105.782 27.3858 105.23 28.1202C104.689 28.8442 104.272 29.7192 103.98 30.7452C103.699 31.7765 103.564 32.9275 103.564 34.2036C103.564 35.4275 103.699 36.5317 103.98 37.5161C104.272 38.49 104.689 39.3181 105.23 39.9952C105.782 40.6775 106.444 41.2036 107.209 41.5786C107.97 41.9431 108.834 42.1202 109.793 42.1202Z" fill="white"/>
<path d="M126.904 43.4744V42.4952C127.446 42.4692 127.883 42.4223 128.217 42.3494C128.56 42.2817 128.826 42.1411 129.008 41.9327C129.201 41.7244 129.331 41.4483 129.404 41.0994C129.472 40.74 129.508 40.2661 129.508 39.6827V28.2869C129.508 27.7192 129.477 27.2608 129.425 26.9119C129.383 26.5525 129.279 26.2661 129.113 26.0577C128.946 25.8494 128.717 25.714 128.425 25.6411C128.133 25.5733 127.758 25.5161 127.3 25.4744V24.4952H136.675C138.243 24.4952 139.696 24.7452 141.029 25.2452C142.363 25.7348 143.514 26.4119 144.488 27.2869C145.456 28.1515 146.217 29.1827 146.758 30.3911C147.3 31.589 147.571 32.8911 147.571 34.3077C147.571 35.6567 147.31 36.8911 146.8 38.0161C146.284 39.1411 145.571 40.1098 144.654 40.9119C143.748 41.7192 142.659 42.3494 141.383 42.8077C140.118 43.2556 138.722 43.4744 137.196 43.4744H126.904ZM133.55 25.9952C133.269 25.9952 133.133 26.1358 133.133 26.4119V39.1619C133.133 40.1202 133.425 40.8286 134.008 41.2869C134.602 41.7452 135.514 41.9744 136.738 41.9744C138.889 41.9744 140.54 41.3286 141.696 40.0369C142.863 38.7348 143.446 36.839 143.446 34.3494C143.446 33.0473 143.284 31.8806 142.967 30.8494C142.659 29.8077 142.206 28.9327 141.613 28.2244C141.029 27.5056 140.31 26.9536 139.467 26.5786C138.618 26.1931 137.675 25.9952 136.633 25.9952H133.55Z" fill="white"/>
<path d="M183.2 35.8286C183.2 37.2348 183.044 38.4327 182.741 39.4327C182.434 40.4223 181.955 41.2348 181.304 41.8702C180.663 42.5108 179.835 42.9848 178.825 43.2869C177.825 43.5786 176.616 43.7244 175.2 43.7244C172.559 43.7244 170.627 43.1723 169.408 42.0577C168.184 40.9483 167.575 39.1775 167.575 36.7452V29.9952C167.575 29.3598 167.559 28.8233 167.533 28.3911C167.518 27.9483 167.491 27.5786 167.45 27.2869C167.419 26.9848 167.377 26.74 167.325 26.5577C167.268 26.365 167.2 26.2036 167.116 26.0786C166.976 25.8442 166.762 25.6827 166.471 25.5994C166.189 25.5161 165.768 25.4744 165.2 25.4744V24.4952H174.054V25.4744C173.356 25.4744 172.846 25.5161 172.512 25.5994C172.189 25.6723 171.939 25.8077 171.762 26.0161C171.637 26.1567 171.538 26.3233 171.471 26.5161C171.398 26.6983 171.346 26.9431 171.304 27.2452C171.262 27.5525 171.226 27.9275 171.2 28.3702C171.184 28.8181 171.179 29.3598 171.179 29.9952V36.4536C171.179 38.3286 171.575 39.7192 172.366 40.6202C173.169 41.5108 174.408 41.9536 176.075 41.9536C179.45 41.9536 181.137 40.0733 181.137 36.3077V30.5994C181.137 29.9223 181.122 29.339 181.096 28.8494C181.08 28.3494 181.044 27.9275 180.991 27.5786C180.934 27.2348 180.856 26.9483 180.762 26.7244C180.663 26.49 180.554 26.2973 180.429 26.1411C180.189 25.9223 179.893 25.7556 179.533 25.6411C179.169 25.5317 178.669 25.4744 178.033 25.4744V24.4952H186.033V25.4744C185.419 25.4744 184.95 25.5265 184.616 25.6202C184.283 25.7036 184.023 25.865 183.846 26.0994C183.721 26.2556 183.616 26.4483 183.533 26.6827C183.45 26.9223 183.377 27.2192 183.325 27.5786C183.283 27.9275 183.247 28.3494 183.221 28.8494C183.205 29.339 183.2 29.9223 183.2 30.5994V35.8286Z" fill="white"/>
<path d="M207.383 43.7244L196.467 28.1619H196.362V38.7661C196.362 39.589 196.388 40.24 196.446 40.7244C196.498 41.1983 196.618 41.5681 196.8 41.8286C196.993 42.0942 197.258 42.2661 197.592 42.3494C197.935 42.4223 198.383 42.4692 198.925 42.4952V43.4744H191.592V42.4952C192.201 42.4692 192.685 42.4119 193.05 42.3286C193.425 42.2348 193.717 42.0681 193.925 41.8286C194.133 41.5786 194.269 41.2348 194.342 40.7869C194.409 40.3286 194.446 39.714 194.446 38.9327V29.0369C194.446 28.3442 194.409 27.7765 194.342 27.3286C194.269 26.8702 194.144 26.5108 193.967 26.2452C193.784 25.9848 193.529 25.8025 193.196 25.7036C192.862 25.5942 192.409 25.5161 191.842 25.4744V24.4952H198.717L208.654 38.7452H208.758V29.2036C208.758 28.4015 208.727 27.7556 208.675 27.2661C208.618 26.7817 208.493 26.4067 208.3 26.1411C208.102 25.8806 207.842 25.714 207.508 25.6411C207.175 25.5577 206.737 25.5056 206.196 25.4744V24.4952H213.508V25.4744C212.894 25.5056 212.404 25.5681 212.029 25.6619C211.664 25.7452 211.383 25.9119 211.175 26.1619C210.977 26.4015 210.847 26.7452 210.779 27.2036C210.706 27.6619 210.675 28.2765 210.675 29.0369V43.7244H207.383Z" fill="white"/>
<path d="M228.358 43.4744H219.567V42.4952C220.119 42.4692 220.567 42.4119 220.9 42.3286C221.233 42.2348 221.489 42.0681 221.671 41.8286C221.848 41.5786 221.973 41.2348 222.046 40.7869C222.114 40.3286 222.15 39.714 222.15 38.9327V29.0369C222.15 28.3442 222.119 27.7765 222.067 27.3286C222.009 26.8702 221.9 26.5108 221.733 26.2452C221.567 25.9848 221.327 25.8025 221.025 25.7036C220.718 25.5942 220.306 25.5161 219.796 25.4744V24.4952H228.108V25.4744C227.593 25.5161 227.181 25.5942 226.879 25.7036C226.587 25.8025 226.358 25.9848 226.192 26.2452C226.025 26.5108 225.91 26.8702 225.858 27.3286C225.801 27.7765 225.775 28.3442 225.775 29.0369V38.9327C225.775 39.714 225.801 40.3286 225.858 40.7869C225.91 41.2348 226.03 41.5786 226.212 41.8286C226.405 42.0681 226.671 42.2348 227.004 42.3286C227.348 42.4119 227.801 42.4692 228.358 42.4952V43.4744Z" fill="white"/>
<path d="M244.673 39.2452L247.882 31.0369C248.184 30.2348 248.434 29.5733 248.632 29.0577C248.824 28.5473 248.97 28.1306 249.069 27.8077C249.163 27.4744 249.225 27.214 249.257 27.0161C249.298 26.8233 249.319 26.6358 249.319 26.4536C249.319 26.0525 249.163 25.7869 248.861 25.6619C248.569 25.5369 247.975 25.4744 247.09 25.4744V24.4952H254.09V25.4744C252.725 25.4744 251.783 26.1411 251.257 27.4744L244.777 43.7244H242.944L237.069 29.3286C236.736 28.5525 236.434 27.9223 236.173 27.4327C235.908 26.9327 235.632 26.5473 235.34 26.2661C235.048 25.9744 234.72 25.7817 234.361 25.6827C234.012 25.5733 233.6 25.5161 233.111 25.5161V24.4952H242.444V25.5161C242.012 25.5317 241.652 25.5577 241.361 25.5994C241.069 25.6306 240.84 25.6775 240.673 25.7452C240.517 25.8181 240.408 25.9119 240.34 26.0369C240.267 26.1619 240.236 26.3181 240.236 26.4952C240.236 26.7192 240.277 26.99 240.361 27.3077C240.444 27.615 240.569 27.99 240.736 28.4327L244.673 39.2452Z" fill="white"/>
<path d="M265.445 32.9744C266.487 32.9744 267.325 32.9483 267.966 32.8911C268.617 32.8233 269.117 32.6827 269.466 32.4744C269.81 32.2661 270.06 31.9692 270.216 31.5786C270.367 31.1775 270.487 30.6411 270.57 29.9744H271.466V37.1827H270.57C270.456 36.5317 270.32 36.0108 270.154 35.6202C269.997 35.2192 269.742 34.9223 269.383 34.7244C269.018 34.5161 268.529 34.3858 267.904 34.3286C267.289 34.2608 266.471 34.2244 265.445 34.2244V39.3077C265.445 39.839 265.513 40.2817 265.654 40.6411C265.789 41.0056 266.018 41.2973 266.341 41.5161C266.674 41.74 267.112 41.9015 267.654 41.9952C268.195 42.0786 268.862 42.1202 269.654 42.1202C270.581 42.1202 271.372 42.0577 272.029 41.9327C272.68 41.7973 273.216 41.5681 273.633 41.2452C274.06 40.9119 274.409 40.4692 274.674 39.9119C274.935 39.3598 275.159 38.6619 275.341 37.8286H276.32L275.924 43.4744H259.216V42.4952C259.758 42.4692 260.2 42.4223 260.549 42.3494C260.893 42.2661 261.159 42.1306 261.341 41.9327C261.518 41.7244 261.643 41.4431 261.716 41.0786C261.784 40.7192 261.82 40.2556 261.82 39.6827V28.2869C261.82 27.7192 261.784 27.2608 261.716 26.9119C261.659 26.5525 261.549 26.2661 261.383 26.0577C261.226 25.8494 260.997 25.714 260.695 25.6411C260.388 25.5733 259.987 25.5161 259.487 25.4744V24.4952H275.07L275.237 29.3286H274.174C274.075 28.6358 273.924 28.0681 273.716 27.6202C273.508 27.1619 273.206 26.8025 272.82 26.5369C272.445 26.2608 271.956 26.0733 271.362 25.9744C270.763 25.865 270.029 25.8077 269.154 25.8077H266.362C265.945 25.8077 265.685 25.865 265.591 25.9744C265.492 26.0733 265.445 26.3233 265.445 26.7244V32.9744Z" fill="white"/>
<path d="M298.956 29.2452C298.956 30.6202 298.561 31.7661 297.769 32.6827C296.988 33.5994 295.732 34.2192 293.998 34.5369L299.727 41.0786C300.113 41.5369 300.581 41.8911 301.123 42.1411C301.665 42.3806 302.217 42.4952 302.79 42.4952V43.4744H296.936L290.831 35.9744C290.415 35.49 290.05 35.1619 289.748 34.9952C289.441 34.8181 289.165 34.7244 288.915 34.7244V39.5577C288.915 40.1723 288.946 40.6723 289.019 41.0577C289.102 41.4327 289.269 41.7348 289.519 41.9536C289.769 42.1619 290.123 42.3077 290.581 42.3911C291.05 42.464 291.686 42.4952 292.477 42.4952V43.4744H282.686V42.4952C283.227 42.4952 283.665 42.464 283.998 42.3911C284.342 42.3077 284.607 42.1619 284.79 41.9536C284.982 41.7452 285.113 41.464 285.186 41.0994C285.253 40.7244 285.29 40.2556 285.29 39.6827V28.2869C285.29 27.7192 285.258 27.2608 285.206 26.9119C285.165 26.5525 285.061 26.2661 284.894 26.0577C284.727 25.8494 284.488 25.714 284.186 25.6411C283.878 25.5733 283.467 25.5161 282.956 25.4744V24.4952H291.498C293.873 24.4952 295.706 24.9223 296.998 25.7661C298.3 26.5994 298.956 27.7608 298.956 29.2452ZM288.915 33.2452H290.498C292.05 33.2452 293.212 32.9483 293.977 32.3494C294.738 31.7556 295.123 30.7608 295.123 29.3702C295.123 28.3286 294.795 27.49 294.144 26.8494C293.503 26.1983 292.623 25.8702 291.498 25.8702H289.352C289.061 25.8702 288.915 26.0108 288.915 26.2869V33.2452Z" fill="white"/>
<path d="M307.891 37.1827H308.85C309.084 38.7556 309.709 39.99 310.725 40.8911C311.735 41.7817 312.996 42.2244 314.496 42.2244C315.105 42.2244 315.662 42.1515 316.162 41.9952C316.673 41.8442 317.11 41.6358 317.475 41.3702C317.834 41.0942 318.11 40.7765 318.308 40.4119C318.501 40.0369 318.6 39.6202 318.6 39.1619C318.6 38.7765 318.537 38.4327 318.412 38.1411C318.298 37.8494 318.069 37.5733 317.725 37.3077C317.376 37.0317 316.902 36.7556 316.308 36.4744C315.709 36.1983 314.933 35.8806 313.975 35.5161C312.058 34.7817 310.631 33.9275 309.704 32.9536C308.787 31.9692 308.329 30.8077 308.329 29.4744C308.329 28.6983 308.475 27.99 308.766 27.3494C309.069 26.714 309.485 26.1619 310.016 25.7036C310.558 25.2452 311.194 24.8911 311.933 24.6411C312.683 24.3806 313.506 24.2452 314.412 24.2452C315.256 24.2452 316.048 24.3806 316.787 24.6411C317.522 24.9067 318.251 25.3025 318.975 25.8286L319.433 24.5994H320.016L320.287 29.9119H319.329C318.923 28.5681 318.308 27.5369 317.475 26.8286C316.641 26.1098 315.668 25.7452 314.558 25.7452C313.543 25.7452 312.714 26.0056 312.079 26.5161C311.454 27.0161 311.141 27.6567 311.141 28.4327C311.141 28.7817 311.194 29.0942 311.308 29.3702C311.433 29.6358 311.647 29.8911 311.954 30.1411C312.272 30.3911 312.704 30.6411 313.246 30.8911C313.787 31.1411 314.48 31.4275 315.329 31.7452C316.48 32.1931 317.459 32.6411 318.266 33.0994C319.084 33.5473 319.751 34.0265 320.266 34.5369C320.793 35.0525 321.173 35.5994 321.412 36.1827C321.662 36.7556 321.787 37.3858 321.787 38.0786C321.787 38.9119 321.605 39.6775 321.246 40.3702C320.881 41.0681 320.376 41.6619 319.725 42.1619C319.084 42.6515 318.313 43.0317 317.412 43.3077C316.522 43.5838 315.537 43.7244 314.454 43.7244C313.464 43.7244 312.579 43.589 311.787 43.3286C310.996 43.0525 310.183 42.6098 309.35 41.9952L308.85 43.4744H308.266L307.891 37.1827Z" fill="white"/>
<path d="M337.225 43.4744H328.434V42.4952C328.986 42.4692 329.434 42.4119 329.767 42.3286C330.1 42.2348 330.355 42.0681 330.538 41.8286C330.715 41.5786 330.84 41.2348 330.913 40.7869C330.98 40.3286 331.017 39.714 331.017 38.9327V29.0369C331.017 28.3442 330.986 27.7765 330.934 27.3286C330.876 26.8702 330.767 26.5108 330.6 26.2452C330.434 25.9848 330.194 25.8025 329.892 25.7036C329.585 25.5942 329.173 25.5161 328.663 25.4744V24.4952H336.975V25.4744C336.46 25.5161 336.048 25.5942 335.746 25.7036C335.454 25.8025 335.225 25.9848 335.059 26.2452C334.892 26.5108 334.777 26.8702 334.725 27.3286C334.668 27.7765 334.642 28.3442 334.642 29.0369V38.9327C334.642 39.714 334.668 40.3286 334.725 40.7869C334.777 41.2348 334.897 41.5786 335.079 41.8286C335.272 42.0681 335.538 42.2348 335.871 42.3286C336.215 42.4119 336.668 42.4692 337.225 42.4952V43.4744Z" fill="white"/>
<path d="M362.832 29.9119H361.769C361.728 29.1098 361.608 28.4431 361.415 27.9119C361.233 27.3702 360.967 26.9431 360.623 26.6202C360.275 26.3025 359.853 26.089 359.353 25.9744C358.863 25.8494 358.295 25.7869 357.644 25.7869C356.988 25.7869 356.467 25.8025 356.082 25.8286C355.707 25.8442 355.415 25.8806 355.207 25.9327C354.998 25.99 354.858 26.0733 354.79 26.1827C354.733 26.2817 354.707 26.4015 354.707 26.5369V39.4536C354.707 39.9848 354.738 40.4327 354.811 40.8077C354.879 41.1827 355.03 41.4952 355.269 41.7452C355.504 41.9848 355.837 42.1619 356.269 42.2869C356.712 42.4015 357.295 42.4692 358.019 42.4952V43.4744H347.707V42.4952C348.441 42.4692 349.03 42.4015 349.478 42.2869C349.92 42.1619 350.259 41.9848 350.498 41.7452C350.733 41.4952 350.884 41.1827 350.957 40.8077C351.04 40.4327 351.082 39.9848 351.082 39.4536V26.5369C351.082 26.4015 351.051 26.2817 350.998 26.1827C350.941 26.0733 350.821 25.99 350.644 25.9327C350.462 25.8806 350.196 25.8442 349.853 25.8286C349.519 25.8025 349.082 25.7869 348.54 25.7869C347.941 25.7869 347.373 25.8181 346.832 25.8702C346.29 25.9275 345.811 26.0942 345.394 26.3702C344.988 26.6358 344.665 27.0473 344.415 27.5994C344.165 28.1411 344.025 28.9119 343.998 29.9119H343.04L343.29 24.4952H362.582L362.832 29.9119Z" fill="white"/>
<path d="M370.25 27.5994C370.011 27.1723 369.792 26.8181 369.584 26.5369C369.375 26.2608 369.157 26.0473 368.938 25.8911C368.729 25.74 368.5 25.6358 368.25 25.5786C368.011 25.5108 367.74 25.4744 367.417 25.4744V24.4952H375.709V25.4744C375.011 25.4744 374.526 25.5473 374.25 25.6827C373.969 25.8077 373.834 26.0056 373.834 26.2661C373.834 26.4327 373.881 26.6358 373.979 26.8702C374.073 27.0942 374.235 27.4067 374.459 27.8077L377.979 34.5369H378.063L381.188 29.3494C381.729 28.4327 382.104 27.7556 382.313 27.3077C382.521 26.8494 382.625 26.49 382.625 26.2244C382.625 25.9483 382.5 25.7556 382.25 25.6411C382 25.5317 381.526 25.4744 380.834 25.4744V24.4952H387.021V25.4744C386.657 25.4744 386.323 25.5369 386.021 25.6619C385.729 25.7765 385.422 25.9952 385.104 26.3286C384.782 26.6619 384.422 27.1358 384.021 27.7452C383.615 28.3442 383.136 29.1306 382.584 30.0994L378.979 36.2452V38.7661C378.979 39.589 379.011 40.2452 379.084 40.7452C379.167 41.2348 379.297 41.6098 379.479 41.8702C379.672 42.1202 379.927 42.2869 380.25 42.3702C380.584 42.4536 381.011 42.4952 381.542 42.4952V43.4744H372.771V42.4952C373.282 42.4952 373.709 42.4536 374.042 42.3702C374.375 42.2869 374.636 42.1202 374.834 41.8702C375.042 41.6202 375.177 41.2661 375.25 40.8077C375.318 40.339 375.354 39.714 375.354 38.9327V36.6619L370.25 27.5994Z" fill="white"/>
</svg>
