<svg xmlns="http://www.w3.org/2000/svg" xmlns:xlink="http://www.w3.org/1999/xlink" width="500" zoomAndPan="magnify" viewBox="0 0 375 374.999991" height="500" preserveAspectRatio="xMidYMid meet" version="1.2"><defs><clipPath id="dec5bee5aa"><path d="M 118 156 L 257 156 L 257 355.773438 L 118 355.773438 Z M 118 156 "/></clipPath><clipPath id="4f6a82dfe6"><path d="M 37.5 19.195312 L 337.5 19.195312 L 337.5 311 L 37.5 311 Z M 37.5 19.195312 "/></clipPath></defs><g id="67b7fbd062"><g clip-rule="nonzero" clip-path="url(#dec5bee5aa)"><path style=" stroke:none;fill-rule:nonzero;fill:#365b6d;fill-opacity:1;" d="M 136.101562 156.617188 C 131.65625 203.15625 127.480469 224.4375 118.789062 269.023438 C 139.9375 285.054688 181.492188 355.769531 181.492188 355.769531 L 181.492188 257.507812 C 170.917969 254.8125 163.039062 246.261719 163.039062 233.800781 C 163.039062 221.476562 173.949219 209.554688 187.421875 209.554688 C 200.890625 209.554688 211.664062 221.542969 211.664062 233.800781 C 211.664062 246.191406 203.851562 254.8125 193.347656 257.507812 L 193.347656 355.769531 C 193.347656 355.769531 234.902344 285.054688 256.050781 269.023438 C 247.359375 224.4375 243.183594 203.15625 238.742188 156.617188 L 187.421875 179.585938 Z M 136.101562 156.617188 "/></g><path style=" stroke:none;fill-rule:nonzero;fill:#365b6d;fill-opacity:1;" d="M 187.421875 83.949219 L 281.441406 126.109375 L 187.421875 168.269531 L 112.257812 134.59375 L 117.039062 177.09375 L 110.640625 185.511719 L 104.175781 177.09375 L 109.160156 133.179688 L 93.332031 126.109375 Z M 187.421875 83.949219 "/><g clip-rule="nonzero" clip-path="url(#4f6a82dfe6)"><path style=" stroke:none;fill-rule:nonzero;fill:#365b6d;fill-opacity:1;" d="M 187.421875 19.023438 C 228.773438 19.023438 266.285156 35.859375 293.292969 62.933594 C 320.433594 90.078125 337.207031 127.589844 337.207031 168.941406 C 337.207031 210.296875 320.503906 247.808594 293.292969 274.816406 C 277.734375 290.507812 258.675781 302.699219 237.324219 310.242188 C 241.636719 304.179688 246.015625 298.1875 250.660156 292.460938 C 253.355469 289.09375 256.722656 285.054688 260.15625 281.753906 C 268.171875 276.5 275.582031 270.507812 282.316406 263.839844 C 306.5625 239.457031 321.582031 205.917969 321.582031 168.875 C 321.582031 131.832031 306.628906 98.160156 282.316406 73.914062 C 257.933594 49.667969 224.394531 34.648438 187.351562 34.648438 C 150.308594 34.648438 116.636719 49.601562 92.390625 73.914062 C 68.144531 98.226562 53.058594 131.832031 53.058594 168.875 C 53.058594 205.917969 68.144531 239.457031 92.390625 263.839844 C 99.125 270.4375 106.535156 276.5 114.546875 281.753906 C 117.914062 284.988281 121.28125 289.09375 124.042969 292.460938 C 128.691406 298.121094 133.070312 304.179688 137.3125 310.242188 C 116.03125 302.699219 97.035156 290.507812 81.34375 274.816406 C 54.335938 247.808594 37.5 210.296875 37.5 168.941406 C 37.5 127.589844 54.335938 90.078125 81.410156 62.933594 C 108.554688 35.859375 146.066406 19.023438 187.421875 19.023438 Z M 187.421875 19.023438 "/></g></g></svg>