<svg xmlns="http://www.w3.org/2000/svg" xmlns:xlink="http://www.w3.org/1999/xlink" width="500" zoomAndPan="magnify" viewBox="0 0 375 374.999991" height="500" preserveAspectRatio="xMidYMid meet" version="1.0"><defs><clipPath id="b19aa87e9c"><path d="M 118 156 L 257 156 L 257 355.773438 L 118 355.773438 Z M 118 156 " clip-rule="nonzero"/></clipPath><clipPath id="cd9fff1ba6"><path d="M 37.5 19.195312 L 337.5 19.195312 L 337.5 311 L 37.5 311 Z M 37.5 19.195312 " clip-rule="nonzero"/></clipPath></defs><g clip-path="url(#b19aa87e9c)"><path fill="#ffffff" d="M 136.15625 156.699219 C 131.710938 203.265625 127.53125 224.5625 118.839844 269.171875 C 140 285.210938 181.578125 355.96875 181.578125 355.96875 L 181.578125 257.648438 C 171 254.953125 163.113281 246.394531 163.113281 233.929688 C 163.113281 221.59375 174.03125 209.667969 187.507812 209.667969 C 200.988281 209.667969 211.769531 221.664062 211.769531 233.929688 C 211.769531 246.328125 203.953125 254.953125 193.4375 257.648438 L 193.4375 355.96875 C 193.4375 355.96875 235.019531 285.210938 256.179688 269.171875 C 247.484375 224.5625 243.308594 203.265625 238.859375 156.699219 L 187.507812 179.679688 Z M 136.15625 156.699219 " fill-opacity="1" fill-rule="nonzero"/></g><path fill="#ffffff" d="M 187.507812 83.988281 L 281.585938 126.171875 L 187.507812 168.359375 L 112.300781 134.664062 L 117.085938 177.1875 L 110.683594 185.609375 L 104.214844 177.1875 L 109.203125 133.25 L 93.367188 126.171875 Z M 187.507812 83.988281 " fill-opacity="1" fill-rule="nonzero"/><g clip-path="url(#cd9fff1ba6)"><path fill="#ffffff" d="M 187.507812 19.023438 C 228.886719 19.023438 266.421875 35.871094 293.445312 62.960938 C 320.601562 90.117188 337.382812 127.65625 337.382812 169.03125 C 337.382812 210.410156 320.671875 247.945312 293.445312 274.96875 C 277.878906 290.667969 258.808594 302.867188 237.445312 310.414062 C 241.757812 304.351562 246.136719 298.351562 250.789062 292.625 C 253.484375 289.253906 256.851562 285.210938 260.289062 281.910156 C 268.308594 276.652344 275.722656 270.65625 282.460938 263.984375 C 306.71875 239.589844 321.75 206.027344 321.75 168.964844 C 321.75 131.898438 306.789062 98.207031 282.460938 73.945312 C 258.066406 49.683594 224.503906 34.65625 187.441406 34.65625 C 150.378906 34.65625 116.683594 49.617188 92.421875 73.945312 C 68.164062 98.273438 53.066406 131.898438 53.066406 168.964844 C 53.066406 206.027344 68.164062 239.589844 92.421875 263.984375 C 99.160156 270.585938 106.574219 276.652344 114.59375 281.910156 C 117.964844 285.144531 121.332031 289.253906 124.09375 292.625 C 128.746094 298.285156 133.125 304.351562 137.371094 310.414062 C 116.074219 302.867188 97.070312 290.667969 81.371094 274.96875 C 54.347656 247.945312 37.5 210.410156 37.5 169.03125 C 37.5 127.65625 54.347656 90.117188 81.4375 62.960938 C 108.597656 35.871094 146.132812 19.023438 187.507812 19.023438 Z M 187.507812 19.023438 " fill-opacity="1" fill-rule="nonzero"/></g></svg>